<svg display="none" xmlns="http://www.w3.org/2000/svg">
    <symbol id="location" viewBox="0 0 19 18">
        <path d="M9.9799 0.466797C6.49089 0.466797 3.65234 3.16807 3.65234 6.48836C3.65234 7.61018 3.97888 8.70496 4.59687 9.65477L9.61973 17.3576C9.71594 17.5051 9.88545 17.5948 10.0678 17.5948C10.0692 17.5948 10.0705 17.5948 10.0719 17.5948C10.2558 17.5934 10.4257 17.501 10.5201 17.3509L15.415 9.57341C15.9989 8.64368 16.3075 7.57689 16.3075 6.48836C16.3075 3.16807 13.4689 0.466797 9.9799 0.466797ZM14.5099 9.05816L10.0598 16.1291L5.49321 9.12601C4.97881 8.33544 4.69991 7.42337 4.69991 6.48836C4.69991 3.72145 7.07239 1.4637 9.9799 1.4637C12.8874 1.4637 15.2564 3.72145 15.2564 6.48836C15.2564 7.39564 14.9959 8.28439 14.5099 9.05816Z"  />
        <path d="M9.98019 3.47656C8.23568 3.47656 6.81641 4.8272 6.81641 6.48734C6.81641 8.13688 8.21258 9.49812 9.98019 9.49812C11.7696 9.49812 13.144 8.11875 13.144 6.48734C13.144 4.8272 11.7247 3.47656 9.98019 3.47656ZM9.98019 8.50122C8.8111 8.50122 7.86397 7.59688 7.86397 6.48734C7.86397 5.38058 8.81718 4.47347 9.98019 4.47347C11.1432 4.47347 12.0929 5.38058 12.0929 6.48734C12.0929 7.58069 11.1678 8.50122 9.98019 8.50122Z"  />
    </symbol>
    <symbol id="tel" viewBox="0 0 19 18" >
        <path d="M15.1968 11.0277C14.8278 10.6626 14.3827 10.4674 13.911 10.4674C13.4431 10.4674 12.9942 10.6589 12.61 11.0241L11.4078 12.1628C11.3089 12.1122 11.21 12.0652 11.1149 12.0182C10.978 11.9531 10.8486 11.8917 10.7383 11.8266C9.61226 11.147 8.58893 10.2613 7.60744 9.11535C7.13191 8.54418 6.81236 8.06339 6.5803 7.57536C6.89225 7.30424 7.18137 7.02227 7.46288 6.75115C7.5694 6.64993 7.67591 6.54509 7.78243 6.44387C8.58132 5.68473 8.58132 4.70145 7.78243 3.94231L6.74388 2.95542C6.62595 2.84335 6.50422 2.72767 6.39009 2.61199C6.16184 2.38786 5.92217 2.1565 5.6749 1.93961C5.30589 1.59257 4.8646 1.4082 4.40049 1.4082C3.93637 1.4082 3.48747 1.59257 3.10705 1.93961C3.10325 1.94322 3.10325 1.94322 3.09944 1.94684L1.80601 3.18678C1.31907 3.64949 1.04136 4.21343 0.980498 4.86774C0.889196 5.92332 1.21636 6.90659 1.46744 7.55006C2.08372 9.12981 3.00434 10.5939 4.37766 12.1628C6.04391 14.0534 8.04873 15.5464 10.3389 16.5984C11.2138 16.9924 12.3817 17.4587 13.6866 17.5383C13.7665 17.5419 13.8502 17.5455 13.9262 17.5455C14.805 17.5455 15.543 17.2454 16.1213 16.649C16.1251 16.6417 16.1327 16.6381 16.1365 16.6309C16.3343 16.4032 16.5626 16.1971 16.8022 15.9766C16.9658 15.8284 17.1332 15.6729 17.2968 15.5103C17.6734 15.1379 17.8712 14.7041 17.8712 14.2595C17.8712 13.8112 17.6696 13.381 17.2854 13.0195L15.1968 11.0277ZM16.5588 14.8343C16.5549 14.8343 16.5549 14.8379 16.5588 14.8343C16.4104 14.9861 16.2582 15.1235 16.0946 15.2753C15.8474 15.4994 15.5963 15.7344 15.3604 15.9983C14.9762 16.3887 14.5235 16.5731 13.93 16.5731C13.873 16.5731 13.8121 16.5731 13.755 16.5694C12.6252 16.5008 11.5752 16.0814 10.7878 15.7235C8.63458 14.733 6.74388 13.3268 5.17274 11.5446C3.8755 10.0589 3.00814 8.68516 2.43371 7.21025C2.07992 6.31012 1.95057 5.60881 2.00764 4.94727C2.04568 4.52432 2.21687 4.17367 2.53262 3.87362L3.82985 2.64091C4.01626 2.47462 4.21408 2.38425 4.40809 2.38425C4.64776 2.38425 4.84177 2.52162 4.96351 2.6373C4.96731 2.64091 4.97112 2.64453 4.97492 2.64814C5.20698 2.8542 5.42762 3.06748 5.65968 3.29522C5.77761 3.4109 5.89935 3.52658 6.02108 3.64588L7.05963 4.63277C7.46288 5.01596 7.46288 5.37022 7.05963 5.75341C6.94931 5.85825 6.84279 5.96308 6.73247 6.0643C6.41291 6.37519 6.10858 6.66439 5.77761 6.94636C5.77 6.95359 5.76239 6.9572 5.75859 6.96443C5.43143 7.27532 5.4923 7.57898 5.56077 7.78503C5.56458 7.79588 5.56838 7.80672 5.57218 7.81757C5.84228 8.43935 6.2227 9.02497 6.80094 9.72266L6.80475 9.72628C7.85471 10.9554 8.96174 11.9133 10.1829 12.6472C10.3389 12.7412 10.4986 12.8171 10.6508 12.8894C10.7878 12.9545 10.9171 13.0159 11.0274 13.081C11.0426 13.0882 11.0579 13.0991 11.0731 13.1063C11.2024 13.1677 11.3242 13.1967 11.4497 13.1967C11.7654 13.1967 11.9633 13.0087 12.0279 12.9472L13.329 11.7109C13.4583 11.588 13.6637 11.4398 13.9034 11.4398C14.1393 11.4398 14.3333 11.5808 14.4512 11.7037C14.455 11.7073 14.455 11.7073 14.4588 11.7109L16.5549 13.7028C16.9468 14.0715 16.9468 14.4511 16.5588 14.8343Z"  />
        <path d="M10.6923 4.49156C11.689 4.65062 12.5944 5.09887 13.3172 5.78572C14.04 6.47257 14.5079 7.33293 14.6791 8.28006C14.7209 8.51865 14.9378 8.68494 15.185 8.68494C15.2155 8.68494 15.2421 8.68132 15.2725 8.67771C15.554 8.63433 15.7405 8.38128 15.6948 8.11377C15.4894 6.96782 14.9187 5.92309 14.0476 5.09526C13.1764 4.26743 12.077 3.72518 10.8711 3.52997C10.5896 3.48659 10.3271 3.66373 10.2776 3.92762C10.2282 4.19151 10.4108 4.44818 10.6923 4.49156Z"  />
        <path d="M18.9557 7.97349C18.6172 6.08647 17.6813 4.36936 16.2433 3.00289C14.8053 1.63643 12.9983 0.747142 11.0125 0.425409C10.7348 0.378414 10.4723 0.559163 10.4229 0.823057C10.3772 1.09057 10.5636 1.34 10.8452 1.38699C12.6179 1.67258 14.2347 2.47149 15.5205 3.68974C16.8064 4.9116 17.6433 6.44797 17.9438 8.13255C17.9857 8.37114 18.2025 8.53743 18.4498 8.53743C18.4802 8.53743 18.5068 8.53382 18.5373 8.5302C18.815 8.49044 19.0052 8.23739 18.9557 7.97349Z"  />
    </symbol>
    <symbol id="mail" viewBox="0 0 23 18" >
        <path d="M1.43538 16.8421C1.44947 16.8553 1.46483 16.8672 1.48131 16.8775C1.87884 17.2748 2.42865 17.4992 3.00311 17.4991H15.601C16.1749 17.4992 16.724 17.2754 17.1215 16.8792C17.1662 16.8511 17.2024 16.8126 17.2269 16.7671C17.5433 16.4041 17.7163 15.9463 17.7157 15.4735V10.8776C18.2582 10.8475 18.7929 10.7399 19.3022 10.5588L22.2313 11.0064C22.3452 11.0238 22.46 10.9802 22.5303 10.8925C22.6008 10.8049 22.6156 10.6874 22.5688 10.5863L21.7543 8.82556C23.1911 7.0304 23.2675 4.55585 21.9442 2.6823C20.6207 0.808743 18.1943 -0.0437679 15.9201 0.565997C13.6459 1.17576 12.0341 3.11085 11.9184 5.37031H3.00311C1.94054 5.3718 1.04363 6.12756 0.906564 7.13686C0.889941 7.18288 0.885011 7.23199 0.892336 7.28016C0.890082 7.31862 0.888673 7.35707 0.888673 7.3958V15.4735C0.88811 15.9459 1.06096 16.4034 1.37678 16.7664C1.392 16.7945 1.41186 16.8201 1.43538 16.8421ZM3.00311 16.8957C2.68193 16.8961 2.36906 16.7958 2.1124 16.6106L5.91205 12.888C5.99178 12.8112 6.02235 12.6992 5.99221 12.5948C5.96192 12.4902 5.87571 12.4094 5.76583 12.3828C5.65609 12.3562 5.54002 12.3881 5.46155 12.4663L1.69895 16.1526C1.5802 15.9444 1.51822 15.7107 1.51836 15.4735V7.88709L8.0541 13.188C8.77521 13.776 9.8351 13.7757 10.5558 13.1872L14.3873 10.0742C14.3962 10.0672 14.4046 10.0597 14.4125 10.0516L14.419 10.045C15.2166 10.5414 16.136 10.8286 17.0858 10.8779V15.4735C17.0862 15.7118 17.0236 15.9459 16.904 16.1547L13.1188 12.4657C13.0403 12.3874 12.9238 12.3556 12.8141 12.3823C12.7042 12.4091 12.6178 12.4904 12.588 12.5951C12.5581 12.6999 12.5892 12.8119 12.6697 12.8885L16.49 16.6122C16.2338 16.7965 15.9218 16.8962 15.601 16.8958L3.00311 16.8957ZM13.9138 2.38706C15.7275 0.586372 18.7029 0.481799 20.649 2.15066C22.5951 3.81925 22.815 6.66352 21.1466 8.58861C21.0707 8.67686 21.053 8.79857 21.1016 8.90301L21.7584 10.3232L19.3188 9.95037C19.2637 9.942 19.2074 9.94767 19.1553 9.96696C17.6287 10.5358 15.9054 10.3283 14.5735 9.41522C14.566 9.40942 14.5586 9.40402 14.5508 9.39916C14.3623 9.26801 14.184 9.12417 14.0168 8.96872C12.091 7.17856 12.0449 4.23174 13.9138 2.38706ZM3.00311 5.9736H11.9235C12.009 7.27409 12.5992 8.49686 13.578 9.40172C13.6822 9.49847 13.7897 9.5909 13.9003 9.67874L10.1484 12.7269C9.6624 13.1239 8.94749 13.1241 8.46107 12.7276L1.54681 7.11959C1.68543 6.4541 2.29482 5.97468 3.00311 5.9736Z"  />
        <path d="M15.4599 4.95154H15.467L20.5498 4.87828C20.802 4.87474 21.0031 4.67517 20.9994 4.43258C20.9957 4.19019 20.7881 3.99632 20.5363 4.00005L15.4535 4.07332C15.2013 4.07509 14.9984 4.27309 15 4.51567C15.0021 4.75806 15.2079 4.95331 15.4599 4.95154Z"  />
        <path d="M18.4484 6.00001H18.4401L15.5436 6.03625C15.2413 6.03809 14.9981 6.24445 15 6.49707C15.0022 6.7499 15.2492 6.95339 15.5512 6.95154H15.5598L18.4563 6.91531C18.7583 6.91367 19.0016 6.70711 18.9996 6.45428C18.9974 6.20146 18.7507 5.99817 18.4484 6.00001Z"  />
    </symbol>
    <symbol id="search" viewBox="0 0 16 16" fill="none" xmlns="http://www.w3.org/2000/svg">

		<path d="M15.8045 14.862L11.2545 10.312C12.1359 9.22334 12.6665 7.84 12.6665 6.33334C12.6665 2.84134 9.8252 0 6.33324 0C2.84128 0 0 2.84131 0 6.33331C0 9.82531 2.84131 12.6667 6.33327 12.6667C7.83991 12.6667 9.22324 12.136 10.3119 11.2547L14.8618 15.8047C14.9918 15.9347 15.1625 16 15.3332 16C15.5039 16 15.6745 15.9347 15.8045 15.8047C16.0652 15.544 16.0652 15.1227 15.8045 14.862ZM6.33327 11.3333C3.57596 11.3333 1.33333 9.09066 1.33333 6.33331C1.33333 3.57597 3.57596 1.33331 6.33327 1.33331C9.09059 1.33331 11.3332 3.57597 11.3332 6.33331C11.3332 9.09066 9.09056 11.3333 6.33327 11.3333Z" fill="#737373"/>
	</symbol>
	<symbol id="basket" viewBox="0 0 27 24" fill="none" xmlns="http://www.w3.org/2000/svg">

		<path d="M7.80488 18.4797C6.62527 18.4197 6.64748 16.7665 7.80483 16.7091C11.0832 16.7204 19.7302 16.7121 23.1129 16.7145C24.0381 16.7145 24.8296 16.0871 25.0377 15.189L26.9585 6.90135C27.0685 6.42683 26.9575 5.93569 26.654 5.55396C26.3505 5.17223 25.8962 4.95021 25.4074 4.95021C24.0466 4.95021 12.4956 4.89811 6.57921 4.87461L5.64136 1.40727C5.41622 0.57867 4.65734 0 3.79583 0H0.791436C0.354352 0 0 0.35308 0 0.788594C0 1.22411 0.354352 1.57719 0.791436 1.57719H3.79583C3.94415 1.57719 4.07474 1.67681 4.11331 1.8186L7.71513 15.1341C7.08182 15.157 6.49194 15.4136 6.04462 15.8659C5.57461 16.3411 5.3222 16.9702 5.33386 17.6373C5.35718 18.9715 6.46567 20.0569 7.80488 20.0569H8.9589C8.78737 20.4156 8.69108 20.8167 8.69108 21.2398C8.69108 22.7618 9.93374 24 11.4612 24C12.9887 24 14.2313 22.7618 14.2313 21.2398C14.2313 20.8167 14.135 20.4156 13.9635 20.0569H18.9609C18.7895 20.4155 18.6932 20.8164 18.6932 21.2394C18.6932 22.7614 19.936 23.9996 21.4634 23.9996C22.9909 23.9996 24.2336 22.7613 24.2336 21.2394C24.2336 20.7999 24.1294 20.3844 23.9453 20.0152C24.2585 19.9101 24.4843 19.6158 24.4843 19.2683C24.4843 18.8328 24.1299 18.4797 23.6929 18.4797H7.80488ZM12.6484 21.2399C12.6484 21.8922 12.1158 22.4229 11.4612 22.4229C10.8065 22.4229 10.2739 21.8922 10.2739 21.2399C10.2739 20.5879 10.806 20.0575 11.4602 20.0569H11.4622C12.1164 20.0575 12.6484 20.5879 12.6484 21.2399ZM21.4634 22.4224C20.8088 22.4224 20.2762 21.8917 20.2762 21.2394C20.2762 20.5936 20.7984 20.0673 21.4442 20.0569H21.4827C22.1286 20.0673 22.6508 20.5936 22.6508 21.2394C22.6507 21.8917 22.1181 22.4224 21.4634 22.4224V22.4224ZM25.4132 6.53318C25.4179 6.53907 25.4172 6.54186 25.4162 6.54638L24.6069 10.0385H21.8663L22.333 6.51494L25.4011 6.52724C25.4058 6.52735 25.4086 6.52735 25.4132 6.53318V6.53318ZM17.2538 15.1373V11.6157H20.0609L19.5944 15.1373H17.2538ZM13.3292 15.1373L12.859 11.6157H15.6709V15.1373H13.3292ZM9.68581 15.1373H9.68333C9.49043 15.1372 9.32048 15.0076 9.2703 14.8229L8.40278 11.6157H11.2621L11.7324 15.1373H9.68581ZM12.6484 10.0386L12.1724 6.47419L15.6709 6.48823V10.0386H12.6484ZM17.2538 10.0386V6.49459L20.7373 6.50858L20.2697 10.0386H17.2538ZM10.5747 6.46773L11.0515 10.0385H7.97615L7.00637 6.45338L10.5747 6.46773ZM23.1129 15.1373H21.191L21.6574 11.6157H24.2413L23.4954 14.8341C23.4541 15.0126 23.2968 15.1373 23.1129 15.1373Z" fill="black"/>
	</symbol>
	<symbol id="facebook"  viewBox="0 0 14 27" xmlns="http://www.w3.org/2000/svg">

		<path d="M0.823465 15.6791H3.58811V26.1551C3.58811 26.6209 3.95593 26.9989 4.41158 26.9989L8.81107 27C9.26672 27 9.63454 26.6209 9.63454 26.1562V15.6803H12.2554C12.6704 15.6803 13.0206 15.363 13.0722 14.9411L13.619 10.4411C13.6805 9.93937 13.2973 9.49275 12.8021 9.49275H9.63454C9.75861 6.71287 9.15693 5.8905 10.9213 5.8905C12.1159 5.74425 14 6.36413 14 5.04675V1.02262C14 0.60075 13.6959 0.244125 13.2885 0.18675C12.9438 0.138375 11.5812 0 9.89146 0C2.19481 0 3.77916 8.7435 3.58921 9.49162H0.823465C0.368912 9.49162 0 9.86963 0 10.3354V14.8354C0 15.3011 0.368912 15.6791 0.823465 15.6791ZM1.64693 11.1803H4.41158C4.86613 11.1803 5.23504 10.8022 5.23504 10.3365V6.79163C5.23504 3.54825 6.93138 1.68863 9.89036 1.68863C10.8544 1.68863 11.7415 1.737 12.352 1.7865V4.20412C11.9106 4.43475 7.98651 3.20963 7.98651 7.23825V10.3376C7.98651 10.8034 8.35542 11.1814 8.80998 11.1814H11.8689L11.5263 13.9939H8.80998C8.35542 13.9939 7.98651 14.3719 7.98651 14.8376V25.3125H5.23614V14.8365C5.23614 14.3707 4.86723 13.9928 4.41267 13.9928H1.64693V11.1803Z" />
	</symbol>
	<symbol id="vk"  viewBox="0 0 28 17" xmlns="http://www.w3.org/2000/svg">

		<path d="M14.169 17C18.2196 17 16.7753 14.5089 17.088 13.7927C17.0833 13.2577 17.0786 12.7432 17.0973 12.4304C17.354 12.5007 17.9595 12.7987 19.2101 13.9797C21.1409 15.8723 21.6344 17 23.1942 17H26.0654C26.9754 17 27.449 16.6339 27.6859 16.3268C27.9145 16.0299 28.1385 15.5085 27.8935 14.6971C27.253 12.7432 23.5174 9.36927 23.2852 9.0134C23.3202 8.94767 23.3762 8.8604 23.4054 8.81507H23.4031C24.1404 7.86873 26.9544 3.77287 27.3685 2.13407C27.3697 2.1318 27.3709 2.1284 27.3709 2.125C27.5949 1.377 27.3895 0.891933 27.1772 0.617667C26.8575 0.2074 26.3489 0 25.6617 0H22.7906C21.8293 0 21.1001 0.470333 20.7314 1.32827C20.1143 2.8526 18.3806 5.9874 17.081 7.09693C17.0413 5.525 17.0681 4.3248 17.0891 3.43287C17.1311 1.6932 17.2665 0 15.408 0H10.8954C9.73106 0 8.61691 1.23533 9.82323 2.70187C10.8779 3.98707 10.2024 4.70333 10.4299 8.2688C9.54323 7.34513 7.96591 4.85067 6.85059 1.6626C6.53793 0.800133 6.06427 0.00113325 4.73078 0.00113325H1.85965C0.695326 0.00113325 0 0.617666 0 1.65013C0 3.96893 5.28378 17 14.169 17V17ZM4.73078 1.70113C4.98395 1.70113 5.00961 1.70113 5.19744 2.21907C6.3396 5.48647 8.90157 10.3213 10.7729 10.3213C12.1787 10.3213 12.1787 8.9216 12.1787 8.3946L12.1775 4.199C12.1005 2.81067 11.5802 2.11933 11.2384 1.7L15.331 1.70453C15.3333 1.7238 15.3077 6.34553 15.3427 7.46527C15.3427 9.05533 16.6423 9.96653 18.6711 7.97187C20.8119 5.62473 22.2924 2.11593 22.3519 1.97313C22.4394 1.76913 22.5153 1.7 22.7906 1.7H25.6617H25.6734C25.6722 1.7034 25.6722 1.7068 25.6711 1.7102C25.4086 2.9002 22.8174 6.69233 21.9506 7.86987C21.9366 7.888 21.9238 7.90727 21.9109 7.92653C21.5294 8.53173 21.2191 9.2004 21.9634 10.1411H21.9646C22.0323 10.2204 22.2084 10.4063 22.4651 10.6647C23.2631 11.4648 26 14.2007 26.2427 15.2887C26.0817 15.3136 25.9067 15.2955 23.1942 15.3011C22.6168 15.3011 22.1653 14.4625 20.4421 12.7738C18.8928 11.3095 17.8871 10.7111 16.9713 10.7111C15.1933 10.7111 15.3228 12.1131 15.3392 13.8085C15.345 15.6468 15.3333 15.0654 15.3462 15.181C15.2423 15.2207 14.9448 15.3 14.169 15.3C6.76659 15.3 1.94598 3.8862 1.76048 1.70453C1.82465 1.69887 2.7078 1.70227 4.73078 1.70113V1.70113Z"/>
	</symbol>
	<symbol id="insta" viewBox="0 0 24 24" xmlns="http://www.w3.org/2000/svg">

		<path d="M17.5034 0H6.49658C2.91431 0 0 2.91431 0 6.49658V17.5036C0 21.0857 2.91431 24 6.49658 24H17.5036C21.0857 24 24 21.0857 24 17.5036V6.49658C24 2.91431 21.0857 0 17.5034 0V0ZM22.593 17.5036C22.593 20.3099 20.3099 22.593 17.5034 22.593H6.49658C3.69012 22.593 1.40698 20.3099 1.40698 17.5036V6.49658C1.40698 3.69012 3.69012 1.40698 6.49658 1.40698H17.5036C20.3099 1.40698 22.593 3.69012 22.593 6.49658V17.5036Z" />
		<path d="M11.5 6C7.91583 6 5 8.91583 5 12.5C5 16.0842 7.91583 19 11.5 19C15.0842 19 18 16.0842 18 12.5C18 8.91583 15.0842 6 11.5 6ZM11.5 17.6064C8.68446 17.6064 6.39362 15.3157 6.39362 12.5C6.39362 9.68446 8.68446 7.39362 11.5 7.39362C14.3157 7.39362 16.6064 9.68446 16.6064 12.5C16.6064 15.3157 14.3157 17.6064 11.5 17.6064Z" />
		<path d="M18.4999 3C17.6728 3 17 3.67291 17 4.49993C17 5.32709 17.6728 6 18.4999 6C19.3271 6 20 5.32709 20 4.49993C20 3.67277 19.3271 3 18.4999 3ZM18.4999 4.91152C18.273 4.91152 18.0883 4.72683 18.0883 4.49993C18.0883 4.27289 18.273 4.08833 18.4999 4.08833C18.727 4.08833 18.9117 4.27289 18.9117 4.49993C18.9117 4.72683 18.727 4.91152 18.4999 4.91152Z"/>
	</symbol>

	<symbol id="delivery-truck" width="123" height="123" viewBox="0 0 123 123" fill="none" xmlns="http://www.w3.org/2000/svg">

	    <path d="M118.825 56.8184L110.449 53.1936L103.337 39.3532C101.414 35.5636 97.5149 33.2019 93.2585 33.2294H81.0108V29.7693C81.0108 23.5081 76.0129 18.4004 69.7518 18.4004H11.2048C4.94372 18.4004 0.00073068 23.5356 0.00073068 29.7693V82.7691C-0.0541914 86.5862 2.99399 89.7168 6.81107 89.7717C6.83853 89.7717 6.86599 89.7717 6.92092 89.7717H8.37635C8.37635 90.0463 8.34889 90.1561 8.34889 90.3209C8.32143 98.1748 14.6649 104.573 22.5188 104.601C30.3727 104.628 36.7711 98.2846 36.7985 90.4307C36.7985 90.3758 36.7985 90.3484 36.7985 90.2934C36.7985 90.1012 36.7985 90.0188 36.7711 89.7442H84.0865C84.0865 90.0188 84.0865 90.1287 84.0865 90.2934C84.059 98.1473 90.4025 104.546 98.2564 104.573C106.11 104.601 112.509 98.2571 112.536 90.4033C112.536 90.3484 112.536 90.3209 112.536 90.266C112.536 90.0738 112.536 89.9914 112.536 89.7168H116.079C119.896 89.7168 122.999 86.6137 122.999 82.7966C122.999 82.7691 122.999 82.7417 122.999 82.6867V63.1894C123.054 60.4982 121.406 57.9443 118.825 56.8184ZM22.6012 99.1359C17.768 99.1359 13.8686 95.2364 13.8686 90.4033C13.8686 85.5701 17.768 81.6707 22.6012 81.6707C27.4343 81.6707 31.3338 85.5701 31.3338 90.4033C31.3338 95.209 27.4069 99.1359 22.6012 99.1359ZM75.5186 84.3344H35.4804C33.1737 79.309 28.1209 76.0961 22.6012 76.1235C17.054 76.0961 12.0287 79.2816 9.72194 84.3344H6.92092C6.06962 84.3344 5.49294 83.6753 5.49294 82.824V68.6816H75.5186V84.3344ZM75.5186 29.7967V63.1894H5.49294V29.7967C5.49294 26.5838 7.9919 23.9201 11.2048 23.9201H69.7518C72.9648 23.9475 75.5461 26.5838 75.5186 29.7693V29.7967ZM81.0108 38.749H93.2585C95.4279 38.7216 97.46 39.9024 98.4761 41.8521L103.968 52.4796H81.0108V38.749ZM98.3388 99.1359C93.5056 99.1359 89.6062 95.2364 89.6062 90.4033C89.6062 85.5701 93.5056 81.6707 98.3388 81.6707C103.172 81.6707 107.071 85.5701 107.071 90.4033C107.071 95.209 103.172 99.1359 98.3388 99.1359ZM117.534 82.824C117.534 83.6753 116.957 84.3344 116.106 84.3344H111.218C107.895 77.222 99.4372 74.1463 92.3248 77.4691C89.3041 78.8696 86.8601 81.3137 85.4595 84.3344H81.0108V57.9718H107.923L116.655 61.8163C117.205 62.0909 117.562 62.6951 117.534 63.2992V82.824Z" fill="black" />
	</symbol>

	<symbol id="delivery-man" width="132" height="132" viewBox="0 0 132 132" fill="none" xmlns="http://www.w3.org/2000/svg">

	    <path d="M55.6875 32H59.8125V36.125H55.6875V32Z" fill="black" />
	    <path d="M72.1875 32H76.3125V36.125H72.1875V32Z" fill="black" />
	    <path d="M66 50.5625C69.4696 50.5625 72.1875 48.2976 72.1875 45.4062H68.0625C68.0625 45.7698 67.2795 46.4375 66 46.4375C64.7205 46.4375 63.9375 45.7698 63.9375 45.4062H59.8125C59.8125 48.2976 62.5304 50.5625 66 50.5625Z" fill="black" />
	    <path d="M118.615 92.011L110.771 84.1665L107.854 87.0835L115.699 94.9277C116.947 96.1697 117.937 97.6471 118.611 99.2743C119.285 100.901 119.63 102.646 119.625 104.407V117.078C119.623 118.582 119.025 120.024 117.962 121.087C116.899 122.15 115.457 122.748 113.953 122.75H109.313V112.438H113.438V108.312H105.188V71.1875C105.188 70.6405 104.97 70.1159 104.583 69.7291C104.197 69.3423 103.672 69.125 103.125 69.125H91.9401L80.1764 61.6389L78.4692 54.8102L79.191 54.4444C80.8101 53.6306 82.1704 52.3818 83.1193 50.8379C84.0681 49.2941 84.5679 47.5164 84.5626 45.7043V44.375H85.5938C87.5077 44.3728 89.3425 43.6116 90.6958 42.2583C92.0491 40.905 92.8104 39.0701 92.8126 37.1562V35.0938C92.8104 33.2069 92.0704 31.3957 90.7506 30.0472C89.4309 28.6987 87.6361 27.9197 85.7498 27.8768C86.325 26.8184 86.6259 25.6327 86.6251 24.428V18.0781C86.6206 14.1137 85.0437 10.3129 82.2404 7.50964C79.4371 4.70636 75.6364 3.1295 71.6719 3.125H60.3282C56.3638 3.1295 52.563 4.70636 49.7597 7.50964C46.9564 10.3129 45.3796 14.1137 45.3751 18.0781V24.428C45.3746 25.6328 45.676 26.8185 46.2516 27.8768C44.365 27.9194 42.57 28.6982 41.25 30.0468C39.93 31.3953 39.1898 33.2067 39.1876 35.0938V37.1562C39.1897 39.0701 39.951 40.905 41.3043 42.2583C42.6576 43.6116 44.4925 44.3728 46.4063 44.375H47.4376V45.7824C47.4314 47.6031 47.9355 49.3891 48.8927 50.9379C49.8499 52.4867 51.2219 53.7362 52.8532 54.5449L53.5147 54.8757L51.8237 61.6389L40.06 69.125H28.8751C28.3281 69.125 27.8035 69.3423 27.4167 69.7291C27.0299 70.1159 26.8126 70.6405 26.8126 71.1875V78.5831L19.1666 86.229L22.0835 89.146L26.8126 84.4169V108.312H18.5626V112.438H22.6876V122.75H18.0469C16.5432 122.748 15.1015 122.15 14.0382 121.087C12.9749 120.024 12.3768 118.582 12.3751 117.078V104.407C12.3703 102.646 12.7148 100.902 13.3888 99.2743C14.0627 97.6471 15.0526 96.1697 16.3013 94.9277L17.9583 93.271L15.0419 90.354L13.3847 92.011C11.7517 93.6351 10.457 95.5671 9.57566 97.6949C8.6943 99.8227 8.24375 102.104 8.25007 104.407V117.078C8.253 119.676 9.28611 122.166 11.1227 124.002C12.9594 125.839 15.4495 126.872 18.0469 126.875H113.953C116.551 126.872 119.041 125.839 120.877 124.002C122.714 122.166 123.747 119.676 123.75 117.078V104.407C123.756 102.104 123.306 99.8227 122.424 97.6949C121.543 95.5671 120.248 93.6351 118.615 92.011ZM59.8126 73.25H72.1876V87.6875H59.8126V73.25ZM75.1045 69.125L78.6636 65.5672L84.2565 69.125H75.1045ZM51.1341 27.1557C50.6372 26.8954 50.2217 26.503 49.9334 26.0217C49.6451 25.5405 49.4952 24.989 49.5001 24.428V22.901L56.9851 18.7425C59.7395 17.2005 62.8434 16.3908 66.0001 16.3908C69.1567 16.3908 72.2606 17.2005 75.015 18.7425L82.5001 22.901V24.428C82.5 24.988 82.348 25.5374 82.0602 26.0178C81.7725 26.4981 81.3598 26.8913 80.8661 27.1555C80.3724 27.4197 79.8163 27.545 79.257 27.518C78.6977 27.4909 78.1562 27.3126 77.6903 27.002L72.8646 23.7851C70.8334 22.4256 68.4442 21.6999 66.0001 21.6999C63.5559 21.6999 61.1668 22.4256 59.1355 23.7851L54.3098 27.002C53.8458 27.3173 53.3039 27.4984 52.7436 27.5255C52.1833 27.5526 51.6263 27.4247 51.1341 27.1557ZM88.6876 35.0938V37.1562C88.6867 37.9765 88.3604 38.7629 87.7804 39.3429C87.2004 39.9229 86.4141 40.2491 85.5938 40.25H84.5626V32H85.5938C86.4141 32.0009 87.2004 32.3271 87.7804 32.9071C88.3604 33.4871 88.6867 34.2735 88.6876 35.0938ZM60.3282 7.25H71.6719C74.5428 7.25321 77.2951 8.39505 79.325 10.425C81.355 12.455 82.4969 15.2073 82.5001 18.0781V18.1813L77.0179 15.1367C73.6516 13.252 69.8581 12.2624 66.0001 12.2624C62.142 12.2624 58.3485 13.252 54.9822 15.1367L49.5001 18.1813V18.0781C49.5033 15.2073 50.6451 12.455 52.6751 10.425C54.7051 8.39505 57.4574 7.25321 60.3282 7.25ZM46.4063 40.25C45.5861 40.2491 44.7997 39.9229 44.2197 39.3429C43.6397 38.7629 43.3135 37.9765 43.3126 37.1562V35.0938C43.3135 34.2735 43.6397 33.4871 44.2197 32.9071C44.7997 32.3271 45.5861 32.0009 46.4063 32H47.4376V40.25H46.4063ZM51.5626 45.7824V31.5741C53.3242 31.8295 55.118 31.4234 56.5979 30.4343L61.4236 27.2171C62.7778 26.311 64.3705 25.8273 65.9998 25.8273C67.6292 25.8273 69.2218 26.311 70.576 27.2171L75.4017 30.4343C76.882 31.4231 78.6758 31.829 80.4376 31.5738V45.7043C80.4407 46.7534 80.1513 47.7826 79.602 48.6764C79.0527 49.5702 78.2652 50.2932 77.3278 50.7644L67.3832 55.8002C66.9521 56.0174 66.4762 56.1312 65.9934 56.1324C65.5107 56.1337 65.0342 56.0224 64.6019 55.8074L54.6981 50.8556C53.7536 50.3874 52.9593 49.6639 52.4051 48.7673C51.8509 47.8706 51.559 46.8365 51.5626 45.7824ZM62.757 59.498C63.7657 59.9997 64.8773 60.2593 66.0038 60.2565C67.1303 60.2536 68.2406 59.9883 69.2467 59.4815L74.6951 56.7229L76.0911 62.3064L69.2707 69.125H62.7295L55.909 62.3048L57.294 56.7655L62.757 59.498ZM53.3366 65.5669L56.8957 69.125H47.7433L53.3366 65.5669ZM30.9376 73.25H55.6876V89.75C55.6876 90.297 55.9049 90.8216 56.2917 91.2084C56.6785 91.5952 57.2031 91.8125 57.7501 91.8125H74.2501C74.7971 91.8125 75.3217 91.5952 75.7085 91.2084C76.0953 90.8216 76.3126 90.297 76.3126 89.75V73.25H101.063V108.312H99.0001C94.9827 108.318 91.1048 109.787 88.0917 112.444C85.0786 115.101 83.1366 118.765 82.629 122.75H76.3126V112.438C76.3126 111.89 76.0953 111.366 75.7085 110.979C75.3217 110.592 74.7971 110.375 74.2501 110.375H57.7501C57.2031 110.375 56.6785 110.592 56.2917 110.979C55.9049 111.366 55.6876 111.89 55.6876 112.438V122.75H49.3712C48.8635 118.765 46.9215 115.101 43.9084 112.444C40.8953 109.787 37.0175 108.318 33.0001 108.312H30.9376V73.25ZM26.8126 122.75V112.438H33.0001C35.9236 112.441 38.7518 113.478 40.9848 115.365C43.2178 117.252 44.7119 119.868 45.2031 122.75H26.8126ZM59.8126 122.75V114.5H72.1876V122.75H59.8126ZM105.188 122.75H86.797C87.2882 119.868 88.7823 117.252 91.0153 115.365C93.2483 113.478 96.0765 112.441 99.0001 112.438H105.188V122.75Z" fill="black" />
	    <path d="M35.0625 77.375H39.1875V81.5H35.0625V77.375Z" fill="black" />
	    <path d="M43.3125 77.375H51.5625V81.5H43.3125V77.375Z" fill="black" />
	    <path d="M35.0625 85.625H51.5625V89.75H35.0625V85.625Z" fill="black" />
	    <path d="M82.5 91.8125H89.7188C91.6326 91.8103 93.4675 91.0491 94.8208 89.6958C96.1741 88.3425 96.9353 86.5076 96.9375 84.5938V79.4375C96.9375 78.8905 96.7202 78.3659 96.3334 77.9791C95.9466 77.5923 95.422 77.375 94.875 77.375H87.6562C85.7424 77.3772 83.9075 78.1384 82.5542 79.4917C81.2009 80.845 80.4397 82.6799 80.4375 84.5938V89.75C80.4375 90.297 80.6548 90.8216 81.0416 91.2084C81.4284 91.5952 81.953 91.8125 82.5 91.8125ZM84.5625 84.5938C84.5634 83.7735 84.8896 82.9871 85.4696 82.4071C86.0496 81.8271 86.836 81.5009 87.6562 81.5H92.8125V84.5938C92.8116 85.414 92.4854 86.2004 91.9054 86.7804C91.3254 87.3604 90.539 87.6866 89.7188 87.6875H84.5625V84.5938Z" fill="black" />
	</symbol>

	<symbol id="delivery-box" width="123" height="123" viewBox="0 0 123 123" fill="none" xmlns="http://www.w3.org/2000/svg">

	    <path d="M99.3119 37.1166L64.342 17.7412C62.5626 16.7555 60.4377 16.7555 58.6583 17.7412C58.6583 17.7415 58.6583 17.7415 58.6583 17.7415L23.6882 37.1163C21.8239 38.1493 20.666 40.1147 20.666 42.2458V80.7531C20.666 82.8842 21.8239 84.8498 23.6882 85.8826L58.6583 105.258C59.5479 105.751 60.5239 105.997 61.5 105.997C62.4758 105.997 63.4522 105.751 64.342 105.258L99.3119 85.8828C101.176 84.8498 102.334 82.8845 102.334 80.7534V42.246C102.334 40.1152 101.176 38.1496 99.3119 37.1166ZM60.9864 21.9434C61.3081 21.7647 61.6924 21.7651 62.0136 21.9434L75.9775 29.6801L42.2991 48.3398L28.008 40.2151L60.9864 21.9434ZM59.0984 100.009L26.0167 81.6804C25.6795 81.494 25.47 81.1387 25.47 80.7534V44.2979L41.0772 53.1709C41.0811 53.1731 41.0849 53.1752 41.0888 53.1774L59.0984 63.4162V100.009ZM47.1917 51.1212L80.934 32.4262L95.4448 40.4657L61.5156 59.2644L47.1917 51.1212ZM97.5298 80.7531C97.5301 81.1387 97.3206 81.494 96.9833 81.6809L63.9016 100.01V63.4342L97.5298 44.8024V80.7531Z" fill="black" />
	    <path d="M44.6423 61.1336L31.9143 54.1238C31.1705 53.7147 30.2653 53.7279 29.5335 54.1599C28.802 54.592 28.3535 55.3783 28.3535 56.2278V66.3822C28.3535 67.2576 28.8299 68.0639 29.5967 68.4864L42.3248 75.4962C42.6859 75.6949 43.0849 75.7941 43.4834 75.7941C43.9065 75.7941 44.3291 75.6824 44.7053 75.46C45.4368 75.028 45.8853 74.2417 45.8853 73.3923V63.2378C45.8855 62.3622 45.4094 61.5559 44.6423 61.1336ZM41.0816 69.327L33.1577 64.9632V60.2933L41.0816 64.6574V69.327Z" fill="black" />
	    <path d="M54.6614 86.53L48.2976 83.025C47.1358 82.385 45.6747 82.8083 45.0348 83.9703C44.3948 85.1323 44.8181 86.5929 45.9801 87.2332L52.3439 90.7382C52.7114 90.9407 53.1088 91.0365 53.5004 91.0365C54.3474 91.0365 55.1688 90.5873 55.6067 89.7928C56.2467 88.6308 55.8237 87.17 54.6614 86.53Z" fill="black" />
	    <path d="M111.77 26.0751L116.202 21.6433C116.889 20.9562 117.094 19.9232 116.723 19.0257C116.351 18.1284 115.475 17.543 114.504 17.543H102.574C101.247 17.543 100.171 18.6185 100.171 19.9451V31.8751C100.171 32.8466 100.757 33.7225 101.654 34.0944C101.951 34.2174 102.264 34.2772 102.573 34.2772C103.198 34.2772 103.812 34.0331 104.272 33.5735L108.319 29.5268C123.535 51.7739 120.814 82.3533 101.583 101.584C85.0427 118.123 60.481 122.822 39.0091 113.552C37.7911 113.026 36.3773 113.587 35.8517 114.805C35.3258 116.023 35.8868 117.437 37.1048 117.962C44.8458 121.304 53.1051 123 61.4462 123C65.1542 123 68.8798 122.664 72.5806 121.99C84.894 119.745 96.0971 113.863 104.98 104.981C115.494 94.4661 121.84 80.5145 122.848 65.6962C123.809 51.5651 119.881 37.5619 111.77 26.0751ZM104.976 26.0756V22.3467H108.705L104.976 26.0756Z" fill="black" />
	    <path d="M32.0969 109.982L32.0032 109.925C30.8702 109.235 29.3925 109.594 28.7024 110.728C28.0124 111.86 28.3715 113.338 29.5047 114.028L29.5984 114.086C29.9886 114.323 30.4198 114.436 30.8452 114.436C31.6558 114.436 32.4466 114.026 32.8992 113.283C33.5887 112.15 33.2298 110.673 32.0969 109.982Z" fill="black" />
	    <path d="M93.8232 9.17447L93.7043 9.10096C92.5745 8.40548 91.0951 8.75767 90.3997 9.88773C89.7042 11.0178 90.0569 12.4972 91.1867 13.1926L91.3056 13.2661C91.6984 13.5078 92.1327 13.6226 92.562 13.6226C93.3685 13.6226 94.1564 13.2167 94.61 12.4794C95.3052 11.3491 94.9528 9.86971 93.8232 9.17447Z" fill="black" />
	    <path d="M85.7608 4.97914C74.5914 0.189119 62.3457 -1.17877 50.3484 1.02273C38.0631 3.27757 26.8845 9.15441 18.0202 18.0188C7.50559 28.5334 1.16005 42.4849 0.152033 57.3033C-0.808662 71.4339 3.1194 85.4373 11.2302 96.9241L6.79835 101.356C6.11152 102.043 5.90612 103.076 6.27752 103.974C6.6494 104.871 7.52505 105.456 8.4968 105.456H20.4268C21.7531 105.456 22.8289 104.381 22.8289 103.054V91.1241C22.8292 90.1526 22.2437 89.2767 21.3464 88.9049C20.4487 88.5335 19.4154 88.7389 18.7286 89.4257L14.6816 93.4727C-0.534796 71.2256 2.18657 40.6462 21.4171 21.4157C37.9144 4.91812 62.4274 0.198968 83.8673 9.39416C85.0863 9.91715 86.4986 9.35236 87.0216 8.13341C87.5446 6.91447 86.9803 5.50213 85.7608 4.97914ZM18.0245 96.9236V100.653H14.2958L18.0245 96.9236Z" fill="black" />
	</symbol>

	<symbol id="shop" width="164" height="164" viewBox="0 0 164 164" fill="none" xmlns="http://www.w3.org/2000/svg">

	    <path d="M158.587 82.6227L164 71.7968L158.587 44.7339V10.6351H148.014V0.0625H126.869C123.698 0.0625 120.88 1.49494 118.94 3.71534C117 1.49494 114.182 0.0625 111.011 0.0625H89.8659V10.6351H79.2934V15.9212H10.5726V122.111C4.04395 124.363 0 134.52 0 140.148C0 143.708 1.42988 146.93 3.72684 149.309C1.49586 150.712 0 153.181 0 156.006V163.936H163.873V148.077H158.587V82.6227ZM148.014 148.077V89.9284H89.8659V148.077H84.5798V84.6423H94.1427L97.7956 77.3366L101.448 84.6423H115.288L118.941 77.3366L122.594 84.6423H136.433L140.115 77.2761L143.739 84.6423H153.302V148.077H148.014ZM116.297 126.932H111.011V116.359H116.297V126.932H116.297ZM121.583 116.36H126.869V126.932H121.583V116.36ZM105.725 111.073V132.218H116.297V148.077H95.152V95.2145H116.297V111.073H105.725ZM121.583 132.218H132.156V111.074H121.583V95.2149H142.728V148.077H121.583V132.218ZM147.005 79.3559L144.362 74.0697H156.953L154.31 79.3559H147.005ZM26.4312 105.787V68.7836H42.2899V75.9122L32.1616 91.1049C31.6196 91.9163 31.5697 92.9576 32.0293 93.8167C32.4893 94.6783 33.3852 95.2149 34.3606 95.2149H55.5054C56.4807 95.2149 57.3766 94.6783 57.8366 93.8193C58.2966 92.9602 58.2463 91.9163 57.7043 91.1075L47.576 75.9122V68.7836H74.4829L73.8804 71.7968L79.2934 82.6231V105.787H26.4312V105.787ZM44.9328 81.4783L50.5652 89.9284H39.2975L44.9328 81.4783ZM83.5699 79.3559L80.9266 74.0697H93.5184L90.8752 79.3559H83.5699ZM142.252 68.7836L138.023 47.6388H153.776L158.005 68.7836H142.252ZM136.861 68.7836H121.583V57.836C126.129 56.6544 129.513 52.5499 129.513 47.6388H132.631L136.861 68.7836ZM135.809 74.0697L133.165 79.3559H125.86L123.217 74.0697H135.809ZM118.94 52.925C116.025 52.925 113.654 50.554 113.654 47.6388H124.226C124.226 50.554 121.856 52.925 118.94 52.925ZM116.297 57.8357V68.7833H100.938L105.246 47.6385H108.367C108.368 52.5496 111.751 56.6544 116.297 57.8357ZM114.664 74.0697L112.02 79.3559H104.715L102.071 74.0697H114.664ZM95.628 68.7836H79.875L84.1041 47.6388H99.8571L95.628 68.7836ZM79.2934 42.3524H21.1448V47.6385H78.7117L77.6543 52.9246H15.8587V37.066H79.2934V42.3524ZM76.5976 58.2111L75.5403 63.4972H21.1448V126.086C19.6489 124.249 17.8725 122.806 15.8587 122.111V58.2111H76.5976ZM26.4312 111.073H37.0038V137.504H26.4312V111.073ZM42.2899 111.073H52.8625V137.502H42.2899V111.073ZM58.1486 111.073H68.7211V137.502H58.1486V111.073ZM74.0072 111.073H79.2934V137.502H74.0072V111.073ZM126.869 5.34862H142.728V31.7798H121.583V10.6351C121.583 7.71957 123.954 5.34862 126.869 5.34862ZM95.152 5.34862H111.011C113.926 5.34862 116.297 7.71957 116.297 10.6347V31.7795H95.152V5.34862ZM84.5798 15.9212H89.8659V37.066H116.297H121.583H148.014V15.9212H153.301V42.3524H124.226H113.654H84.5798V15.9212ZM79.2934 21.2073V31.7798H15.8587V21.2073H79.2934ZM13.2155 126.932C16.892 126.932 21.1448 134.93 21.1448 140.147C21.1448 144.519 17.5871 148.077 13.2155 148.077C8.84383 148.077 5.28612 144.519 5.28612 140.147C5.28612 134.93 9.53891 126.932 13.2155 126.932ZM21.1448 158.65H5.28612V156.006C5.28612 154.55 6.47287 153.363 7.92934 153.363H18.5019C19.9584 153.363 21.1451 154.55 21.1451 156.006V158.65H21.1448ZM74.0072 158.65H26.4312V156.006C26.4312 153.181 24.9354 150.712 22.7044 149.309C24.4171 147.535 25.6541 145.296 26.1641 142.791L79.2934 142.788V148.077H74.0072V158.65ZM158.587 158.65H79.2934V153.363H158.587V158.65H158.587Z" fill="black" />
	    <path d="M126.869 10.6348H137.442V15.9209H126.869V10.6348Z" fill="black" />
	    <path d="M126.869 21.207H137.442V26.4931H126.869V21.207Z" fill="black" />
	    <path d="M100.438 10.6348H111.01V15.9209H100.438V10.6348Z" fill="black" />
	    <path d="M100.438 21.207H111.01V26.4931H100.438V21.207Z" fill="black" />
	    <path d="M31.7174 121.646C33.1772 121.646 34.3607 120.462 34.3607 119.003C34.3607 117.543 33.1772 116.359 31.7174 116.359C30.2576 116.359 29.0742 117.543 29.0742 119.003C29.0742 120.462 30.2576 121.646 31.7174 121.646Z" fill="black" />
	    <path d="M31.7174 132.218C33.1772 132.218 34.3607 131.035 34.3607 129.575C34.3607 128.115 33.1772 126.932 31.7174 126.932C30.2576 126.932 29.0742 128.115 29.0742 129.575C29.0742 131.035 30.2576 132.218 31.7174 132.218Z" fill="black" />
	    <path d="M47.5749 121.646C49.0347 121.646 50.2181 120.462 50.2181 119.003C50.2181 117.543 49.0347 116.359 47.5749 116.359C46.115 116.359 44.9316 117.543 44.9316 119.003C44.9316 120.462 46.115 121.646 47.5749 121.646Z" fill="black" />
	    <path d="M47.5749 132.218C49.0347 132.218 50.2181 131.035 50.2181 129.575C50.2181 128.115 49.0347 126.932 47.5749 126.932C46.115 126.932 44.9316 128.115 44.9316 129.575C44.9316 131.035 46.115 132.218 47.5749 132.218Z" fill="black" />
	    <path d="M63.4342 121.646C64.894 121.646 66.0775 120.462 66.0775 119.003C66.0775 117.543 64.894 116.359 63.4342 116.359C61.9744 116.359 60.791 117.543 60.791 119.003C60.791 120.462 61.9744 121.646 63.4342 121.646Z" fill="black" />
	    <path d="M63.4342 132.218C64.894 132.218 66.0775 131.035 66.0775 129.575C66.0775 128.115 64.894 126.932 63.4342 126.932C61.9744 126.932 60.791 128.115 60.791 129.575C60.791 131.035 61.9744 132.218 63.4342 132.218Z" fill="black" />
	</symbol>

</svg>