<svg width="26" height="27" viewBox="0 0 26 27" fill="none" xmlns="http://www.w3.org/2000/svg">
<g clip-path="url(#clip0)">
<path d="M11.2397 21.2422C10.0273 21.2422 9.04102 22.3074 9.04102 23.6168C9.04102 24.9261 10.0273 25.9913 11.2397 25.9913C12.4521 25.9913 13.4384 24.9261 13.4384 23.6168C13.4383 22.3074 12.452 21.2422 11.2397 21.2422ZM11.2397 24.6654C10.7043 24.6654 10.2687 24.1949 10.2687 23.6167C10.2687 23.0384 10.7043 22.5679 11.2397 22.5679C11.7751 22.5679 12.2107 23.0384 12.2107 23.6167C12.2107 24.195 11.7751 24.6654 11.2397 24.6654Z" fill="white"/>
<path d="M18.9526 21.2422C17.7402 21.2422 16.7539 22.3074 16.7539 23.6168C16.7539 24.9261 17.7402 25.9913 18.9526 25.9913C20.1649 25.9913 21.1513 24.9261 21.1513 23.6168C21.1512 22.3074 20.1649 21.2422 18.9526 21.2422ZM18.9526 24.6654C18.4171 24.6654 17.9815 24.1949 17.9815 23.6167C17.9815 23.0384 18.4172 22.5679 18.9526 22.5679C19.488 22.5679 19.9236 23.0384 19.9236 23.6167C19.9236 24.195 19.488 24.6654 18.9526 24.6654Z" fill="white"/>
<path d="M19.4942 8.74023H10.6978C10.3588 8.74023 10.084 9.03702 10.084 9.40316C10.084 9.7693 10.3588 10.0661 10.6978 10.0661H19.4942C19.8332 10.0661 20.108 9.7693 20.108 9.40316C20.108 9.03697 19.8332 8.74023 19.4942 8.74023Z" fill="white"/>
<path d="M19.0151 12.1836H11.1763C10.8373 12.1836 10.5625 12.4804 10.5625 12.8465C10.5625 13.2127 10.8373 13.5094 11.1763 13.5094H19.0151C19.3541 13.5094 19.6289 13.2127 19.6289 12.8465C19.6289 12.4804 19.3541 12.1836 19.0151 12.1836Z" fill="white"/>
<path d="M25.4815 5.78714C25.2475 5.47685 24.9006 5.29892 24.5299 5.29892H5.41009L5.02395 3.2745C4.94334 2.8522 4.67664 2.49762 4.31038 2.32586L1.61619 1.06287C1.30515 0.916952 0.943675 1.07109 0.808762 1.40691C0.673704 1.74283 0.816428 2.13327 1.12732 2.27898L3.82156 3.54202L6.79158 19.1125C6.90857 19.7257 7.41424 20.1707 7.99398 20.1707H22.6994C23.0384 20.1707 23.3132 19.8739 23.3132 19.5078C23.3132 19.1417 23.0384 18.8449 22.6994 18.8449H7.99402L7.63275 16.9509H22.813C23.3927 16.9509 23.8984 16.5058 24.0154 15.8926L25.7323 6.89214C25.8071 6.50021 25.7157 6.09738 25.4815 5.78714ZM22.813 15.6251H7.37986L5.66302 6.62472L24.5299 6.62477L22.813 15.6251Z" fill="white"/>
</g>
<defs>
<clipPath id="clip0">
<rect width="26" height="27" fill="white"/>
</clipPath>
</defs>
</svg>
