<svg width="34" height="34" viewBox="0 0 34 34" fill="none" xmlns="http://www.w3.org/2000/svg">
<g clip-path="url(#clip0)">
<path d="M28.1562 4.25H22.3125V3.1875C22.3125 1.42993 20.8826 0 19.125 0H14.875C13.1174 0 11.6875 1.42993 11.6875 3.1875V4.25H5.84375C4.37909 4.25 3.1875 5.44159 3.1875 6.90625V10.625C3.1875 11.2118 3.66323 11.6875 4.25 11.6875H4.83066L5.74859 30.9641C5.82967 32.6665 7.22819 34 8.93244 34H25.0676C26.7719 34 28.1704 32.6665 28.2514 30.9641L29.1693 11.6875H29.75C30.3368 11.6875 30.8125 11.2118 30.8125 10.625V6.90625C30.8125 5.44159 29.6209 4.25 28.1562 4.25ZM13.8125 3.1875C13.8125 2.60166 14.2892 2.125 14.875 2.125H19.125C19.7108 2.125 20.1875 2.60166 20.1875 3.1875V4.25H13.8125V3.1875ZM5.3125 6.90625C5.3125 6.61333 5.55083 6.375 5.84375 6.375H28.1562C28.4492 6.375 28.6875 6.61333 28.6875 6.90625V9.5625C28.3601 9.5625 6.66938 9.5625 5.3125 9.5625V6.90625ZM26.1288 30.863C26.1018 31.4305 25.6356 31.875 25.0676 31.875H8.93244C8.36433 31.875 7.89816 31.4305 7.8712 30.863L6.95805 11.6875H27.042L26.1288 30.863Z" fill="black"/>
<path d="M17 29.75C17.5868 29.75 18.0625 29.2743 18.0625 28.6875V14.875C18.0625 14.2882 17.5868 13.8125 17 13.8125C16.4132 13.8125 15.9375 14.2882 15.9375 14.875V28.6875C15.9375 29.2743 16.4132 29.75 17 29.75Z" fill="black"/>
<path d="M22.3125 29.75C22.8993 29.75 23.375 29.2743 23.375 28.6875V14.875C23.375 14.2882 22.8993 13.8125 22.3125 13.8125C21.7257 13.8125 21.25 14.2882 21.25 14.875V28.6875C21.25 29.2743 21.7257 29.75 22.3125 29.75Z" fill="black"/>
<path d="M11.6875 29.75C12.2743 29.75 12.75 29.2743 12.75 28.6875V14.875C12.75 14.2882 12.2743 13.8125 11.6875 13.8125C11.1007 13.8125 10.625 14.2882 10.625 14.875V28.6875C10.625 29.2743 11.1007 29.75 11.6875 29.75Z" fill="black"/>
</g>
<defs>
<clipPath id="clip0">
<rect width="34" height="34" fill="white"/>
</clipPath>
</defs>
</svg>
