<svg width="14" height="27" viewBox="0 0 14 27" fill="none" xmlns="http://www.w3.org/2000/svg">
<path d="M0.823465 15.6791H3.58811V26.1551C3.58811 26.6209 3.95593 26.9989 4.41158 26.9989L8.81107 27C9.26672 27 9.63454 26.6209 9.63454 26.1562V15.6803H12.2554C12.6704 15.6803 13.0206 15.363 13.0722 14.9411L13.619 10.4411C13.6805 9.93937 13.2973 9.49275 12.8021 9.49275H9.63454C9.75861 6.71287 9.15693 5.8905 10.9213 5.8905C12.1159 5.74425 14 6.36413 14 5.04675V1.02262C14 0.60075 13.6959 0.244125 13.2885 0.18675C12.9438 0.138375 11.5812 0 9.89146 0C2.19481 0 3.77916 8.7435 3.58921 9.49162H0.823465C0.368912 9.49162 0 9.86963 0 10.3354V14.8354C0 15.3011 0.368912 15.6791 0.823465 15.6791ZM1.64693 11.1803H4.41158C4.86613 11.1803 5.23504 10.8022 5.23504 10.3365V6.79163C5.23504 3.54825 6.93138 1.68863 9.89036 1.68863C10.8544 1.68863 11.7415 1.737 12.352 1.7865V4.20412C11.9106 4.43475 7.98651 3.20963 7.98651 7.23825V10.3376C7.98651 10.8034 8.35542 11.1814 8.80998 11.1814H11.8689L11.5263 13.9939H8.80998C8.35542 13.9939 7.98651 14.3719 7.98651 14.8376V25.3125H5.23614V14.8365C5.23614 14.3707 4.86723 13.9928 4.41267 13.9928H1.64693V11.1803Z" fill="black"/>
</svg>
