<svg width="26" height="26" viewBox="0 0 26 26" fill="none" xmlns="http://www.w3.org/2000/svg">
<path d="M21.3486 0H4.65136C2.0866 0 0 2.0866 0 4.65136V21.3487C0 23.9134 2.0866 26 4.65136 26H21.3487C23.9134 26 26 23.9134 26 21.3486V4.65136C26 2.0866 23.9134 0 21.3486 0ZM24.4766 21.3486C24.4766 23.0734 23.0734 24.4766 21.3486 24.4766H4.65136C2.92662 24.4766 1.52344 23.0734 1.52344 21.3486V4.65136C1.52344 2.92662 2.92662 1.52344 4.65136 1.52344H21.3487C23.0734 1.52344 24.4766 2.92662 24.4766 4.65136V21.3486Z" fill="black"/>
<path d="M21.9748 5.71183H10.3733C10.0543 4.76451 9.15831 4.08008 8.1048 4.08008C7.05129 4.08008 6.15526 4.76451 5.8363 5.71183H4.02539C3.60472 5.71183 3.26367 6.05288 3.26367 6.47355C3.26367 6.89422 3.60472 7.23527 4.02539 7.23527H5.83635C6.15531 8.18259 7.05134 8.86702 8.10485 8.86702C9.15836 8.86702 10.0544 8.18259 10.3734 7.23527H21.9749C22.3956 7.23527 22.7366 6.89422 22.7366 6.47355C22.7366 6.05288 22.3956 5.71183 21.9748 5.71183V5.71183ZM8.1048 7.34359C7.62507 7.34359 7.23477 6.95328 7.23477 6.47355C7.23477 5.99382 7.62507 5.60352 8.1048 5.60352C8.58453 5.60352 8.97484 5.99382 8.97484 6.47355C8.97484 6.95328 8.58453 7.34359 8.1048 7.34359Z" fill="black"/>
<path d="M21.9748 12.2372H20.1639C19.8449 11.2899 18.9488 10.6055 17.8954 10.6055C16.8419 10.6055 15.9459 11.2899 15.6269 12.2372H4.02539C3.60472 12.2372 3.26367 12.5783 3.26367 12.9989C3.26367 13.4196 3.60472 13.7607 4.02539 13.7607H15.6269C15.9459 14.708 16.842 15.3924 17.8954 15.3924C18.9489 15.3924 19.845 14.708 20.1639 13.7607H21.9749C22.3956 13.7607 22.7366 13.4196 22.7366 12.9989C22.7366 12.5783 22.3956 12.2372 21.9748 12.2372ZM17.8954 13.869C17.4157 13.869 17.0254 13.4787 17.0254 12.9989C17.0254 12.5192 17.4157 12.1289 17.8954 12.1289C18.3752 12.1289 18.7655 12.5192 18.7655 12.9989C18.7655 13.4787 18.3752 13.869 17.8954 13.869Z" fill="black"/>
<path d="M21.9748 18.7646H13.6369C13.3179 17.8172 12.4219 17.1328 11.3684 17.1328C10.3149 17.1328 9.41882 17.8172 9.09986 18.7646H4.02539C3.60472 18.7646 3.26367 19.1056 3.26367 19.5263C3.26367 19.947 3.60472 20.288 4.02539 20.288H9.09986C9.41882 21.2353 10.3149 21.9198 11.3684 21.9198C12.4219 21.9198 13.3179 21.2353 13.6369 20.288H21.9749C22.3956 20.288 22.7366 19.947 22.7366 19.5263C22.7366 19.1056 22.3956 18.7646 21.9748 18.7646ZM11.3684 20.3964C10.8886 20.3964 10.4983 20.0061 10.4983 19.5263C10.4983 19.0466 10.8886 18.6563 11.3684 18.6563C11.8481 18.6563 12.2384 19.0466 12.2384 19.5263C12.2384 20.006 11.8481 20.3964 11.3684 20.3964V20.3964Z" fill="black"/>
</svg>
