<svg width="24" height="24" viewBox="0 0 24 24" fill="none" xmlns="http://www.w3.org/2000/svg">
<path d="M17.5034 0H6.49658C2.91431 0 0 2.91431 0 6.49658V17.5036C0 21.0857 2.91431 24 6.49658 24H17.5036C21.0857 24 24 21.0857 24 17.5036V6.49658C24 2.91431 21.0857 0 17.5034 0V0ZM22.593 17.5036C22.593 20.3099 20.3099 22.593 17.5034 22.593H6.49658C3.69012 22.593 1.40698 20.3099 1.40698 17.5036V6.49658C1.40698 3.69012 3.69012 1.40698 6.49658 1.40698H17.5036C20.3099 1.40698 22.593 3.69012 22.593 6.49658V17.5036Z" fill="black"/>
<path d="M11.5 6C7.91583 6 5 8.91583 5 12.5C5 16.0842 7.91583 19 11.5 19C15.0842 19 18 16.0842 18 12.5C18 8.91583 15.0842 6 11.5 6ZM11.5 17.6064C8.68446 17.6064 6.39362 15.3157 6.39362 12.5C6.39362 9.68446 8.68446 7.39362 11.5 7.39362C14.3157 7.39362 16.6064 9.68446 16.6064 12.5C16.6064 15.3157 14.3157 17.6064 11.5 17.6064Z" fill="black"/>
<path d="M18.4999 3C17.6728 3 17 3.67291 17 4.49993C17 5.32709 17.6728 6 18.4999 6C19.3271 6 20 5.32709 20 4.49993C20 3.67277 19.3271 3 18.4999 3ZM18.4999 4.91152C18.273 4.91152 18.0883 4.72683 18.0883 4.49993C18.0883 4.27289 18.273 4.08833 18.4999 4.08833C18.727 4.08833 18.9117 4.27289 18.9117 4.49993C18.9117 4.72683 18.727 4.91152 18.4999 4.91152Z" fill="black"/>
</svg>
