<svg width="28" height="17" viewBox="0 0 28 17" fill="none" xmlns="http://www.w3.org/2000/svg">
<path d="M14.169 17C18.2196 17 16.7753 14.5089 17.088 13.7927C17.0833 13.2577 17.0786 12.7432 17.0973 12.4304C17.354 12.5007 17.9595 12.7987 19.2101 13.9797C21.1409 15.8723 21.6344 17 23.1942 17H26.0654C26.9754 17 27.449 16.6339 27.6859 16.3268C27.9145 16.0299 28.1385 15.5085 27.8935 14.6971C27.253 12.7432 23.5174 9.36927 23.2852 9.0134C23.3202 8.94767 23.3762 8.8604 23.4054 8.81507H23.4031C24.1404 7.86873 26.9544 3.77287 27.3685 2.13407C27.3697 2.1318 27.3709 2.1284 27.3709 2.125C27.5949 1.377 27.3895 0.891933 27.1772 0.617667C26.8575 0.2074 26.3489 0 25.6617 0H22.7906C21.8293 0 21.1001 0.470333 20.7314 1.32827C20.1143 2.8526 18.3806 5.9874 17.081 7.09693C17.0413 5.525 17.0681 4.3248 17.0891 3.43287C17.1311 1.6932 17.2665 0 15.408 0H10.8954C9.73106 0 8.61691 1.23533 9.82323 2.70187C10.8779 3.98707 10.2024 4.70333 10.4299 8.2688C9.54323 7.34513 7.96591 4.85067 6.85059 1.6626C6.53793 0.800133 6.06427 0.00113325 4.73078 0.00113325H1.85965C0.695326 0.00113325 0 0.617666 0 1.65013C0 3.96893 5.28378 17 14.169 17V17ZM4.73078 1.70113C4.98395 1.70113 5.00961 1.70113 5.19744 2.21907C6.3396 5.48647 8.90157 10.3213 10.7729 10.3213C12.1787 10.3213 12.1787 8.9216 12.1787 8.3946L12.1775 4.199C12.1005 2.81067 11.5802 2.11933 11.2384 1.7L15.331 1.70453C15.3333 1.7238 15.3077 6.34553 15.3427 7.46527C15.3427 9.05533 16.6423 9.96653 18.6711 7.97187C20.8119 5.62473 22.2924 2.11593 22.3519 1.97313C22.4394 1.76913 22.5153 1.7 22.7906 1.7H25.6617H25.6734C25.6722 1.7034 25.6722 1.7068 25.6711 1.7102C25.4086 2.9002 22.8174 6.69233 21.9506 7.86987C21.9366 7.888 21.9238 7.90727 21.9109 7.92653C21.5294 8.53173 21.2191 9.2004 21.9634 10.1411H21.9646C22.0323 10.2204 22.2084 10.4063 22.4651 10.6647C23.2631 11.4648 26 14.2007 26.2427 15.2887C26.0817 15.3136 25.9067 15.2955 23.1942 15.3011C22.6168 15.3011 22.1653 14.4625 20.4421 12.7738C18.8928 11.3095 17.8871 10.7111 16.9713 10.7111C15.1933 10.7111 15.3228 12.1131 15.3392 13.8085C15.345 15.6468 15.3333 15.0654 15.3462 15.181C15.2423 15.2207 14.9448 15.3 14.169 15.3C6.76659 15.3 1.94598 3.8862 1.76048 1.70453C1.82465 1.69887 2.7078 1.70227 4.73078 1.70113V1.70113Z" fill="black"/>
</svg>
