<svg width="27" height="24" viewBox="0 0 27 24" fill="none" xmlns="http://www.w3.org/2000/svg">
<path d="M7.80488 18.4797C6.62527 18.4197 6.64748 16.7665 7.80483 16.7091C11.0832 16.7204 19.7302 16.7121 23.1129 16.7145C24.0381 16.7145 24.8296 16.0871 25.0377 15.189L26.9585 6.90135C27.0685 6.42683 26.9575 5.93569 26.654 5.55396C26.3505 5.17223 25.8962 4.95021 25.4074 4.95021C24.0466 4.95021 12.4956 4.89811 6.57921 4.87461L5.64136 1.40727C5.41622 0.57867 4.65734 0 3.79583 0H0.791436C0.354352 0 0 0.35308 0 0.788594C0 1.22411 0.354352 1.57719 0.791436 1.57719H3.79583C3.94415 1.57719 4.07474 1.67681 4.11331 1.8186L7.71513 15.1341C7.08182 15.157 6.49194 15.4136 6.04462 15.8659C5.57461 16.3411 5.3222 16.9702 5.33386 17.6373C5.35718 18.9715 6.46567 20.0569 7.80488 20.0569H8.9589C8.78737 20.4156 8.69108 20.8167 8.69108 21.2398C8.69108 22.7618 9.93374 24 11.4612 24C12.9887 24 14.2313 22.7618 14.2313 21.2398C14.2313 20.8167 14.135 20.4156 13.9635 20.0569H18.9609C18.7895 20.4155 18.6932 20.8164 18.6932 21.2394C18.6932 22.7614 19.936 23.9996 21.4634 23.9996C22.9909 23.9996 24.2336 22.7613 24.2336 21.2394C24.2336 20.7999 24.1294 20.3844 23.9453 20.0152C24.2585 19.9101 24.4843 19.6158 24.4843 19.2683C24.4843 18.8328 24.1299 18.4797 23.6929 18.4797H7.80488ZM12.6484 21.2399C12.6484 21.8922 12.1158 22.4229 11.4612 22.4229C10.8065 22.4229 10.2739 21.8922 10.2739 21.2399C10.2739 20.5879 10.806 20.0575 11.4602 20.0569H11.4622C12.1164 20.0575 12.6484 20.5879 12.6484 21.2399ZM21.4634 22.4224C20.8088 22.4224 20.2762 21.8917 20.2762 21.2394C20.2762 20.5936 20.7984 20.0673 21.4442 20.0569H21.4827C22.1286 20.0673 22.6508 20.5936 22.6508 21.2394C22.6507 21.8917 22.1181 22.4224 21.4634 22.4224V22.4224ZM25.4132 6.53318C25.4179 6.53907 25.4172 6.54186 25.4162 6.54638L24.6069 10.0385H21.8663L22.333 6.51494L25.4011 6.52724C25.4058 6.52735 25.4086 6.52735 25.4132 6.53318V6.53318ZM17.2538 15.1373V11.6157H20.0609L19.5944 15.1373H17.2538ZM13.3292 15.1373L12.859 11.6157H15.6709V15.1373H13.3292ZM9.68581 15.1373H9.68333C9.49043 15.1372 9.32048 15.0076 9.2703 14.8229L8.40278 11.6157H11.2621L11.7324 15.1373H9.68581ZM12.6484 10.0386L12.1724 6.47419L15.6709 6.48823V10.0386H12.6484ZM17.2538 10.0386V6.49459L20.7373 6.50858L20.2697 10.0386H17.2538ZM10.5747 6.46773L11.0515 10.0385H7.97615L7.00637 6.45338L10.5747 6.46773ZM23.1129 15.1373H21.191L21.6574 11.6157H24.2413L23.4954 14.8341C23.4541 15.0126 23.2968 15.1373 23.1129 15.1373Z" fill="black"/>
</svg>
