<svg width="123" height="123" viewBox="0 0 123 123" fill="none" xmlns="http://www.w3.org/2000/svg">
<g clip-path="url(#clip0)">
<path d="M118.825 56.8184L110.449 53.1936L103.337 39.3532C101.414 35.5636 97.5149 33.2019 93.2585 33.2294H81.0108V29.7693C81.0108 23.5081 76.0129 18.4004 69.7518 18.4004H11.2048C4.94372 18.4004 0.00073068 23.5356 0.00073068 29.7693V82.7691C-0.0541914 86.5862 2.99399 89.7168 6.81107 89.7717C6.83853 89.7717 6.86599 89.7717 6.92092 89.7717H8.37635C8.37635 90.0463 8.34889 90.1561 8.34889 90.3209C8.32143 98.1748 14.6649 104.573 22.5188 104.601C30.3727 104.628 36.7711 98.2846 36.7985 90.4307C36.7985 90.3758 36.7985 90.3484 36.7985 90.2934C36.7985 90.1012 36.7985 90.0188 36.7711 89.7442H84.0865C84.0865 90.0188 84.0865 90.1287 84.0865 90.2934C84.059 98.1473 90.4025 104.546 98.2564 104.573C106.11 104.601 112.509 98.2571 112.536 90.4033C112.536 90.3484 112.536 90.3209 112.536 90.266C112.536 90.0738 112.536 89.9914 112.536 89.7168H116.079C119.896 89.7168 122.999 86.6137 122.999 82.7966C122.999 82.7691 122.999 82.7417 122.999 82.6867V63.1894C123.054 60.4982 121.406 57.9443 118.825 56.8184ZM22.6012 99.1359C17.768 99.1359 13.8686 95.2364 13.8686 90.4033C13.8686 85.5701 17.768 81.6707 22.6012 81.6707C27.4343 81.6707 31.3338 85.5701 31.3338 90.4033C31.3338 95.209 27.4069 99.1359 22.6012 99.1359ZM75.5186 84.3344H35.4804C33.1737 79.309 28.1209 76.0961 22.6012 76.1235C17.054 76.0961 12.0287 79.2816 9.72194 84.3344H6.92092C6.06962 84.3344 5.49294 83.6753 5.49294 82.824V68.6816H75.5186V84.3344ZM75.5186 29.7967V63.1894H5.49294V29.7967C5.49294 26.5838 7.9919 23.9201 11.2048 23.9201H69.7518C72.9648 23.9475 75.5461 26.5838 75.5186 29.7693V29.7967ZM81.0108 38.749H93.2585C95.4279 38.7216 97.46 39.9024 98.4761 41.8521L103.968 52.4796H81.0108V38.749ZM98.3388 99.1359C93.5056 99.1359 89.6062 95.2364 89.6062 90.4033C89.6062 85.5701 93.5056 81.6707 98.3388 81.6707C103.172 81.6707 107.071 85.5701 107.071 90.4033C107.071 95.209 103.172 99.1359 98.3388 99.1359ZM117.534 82.824C117.534 83.6753 116.957 84.3344 116.106 84.3344H111.218C107.895 77.222 99.4372 74.1463 92.3248 77.4691C89.3041 78.8696 86.8601 81.3137 85.4595 84.3344H81.0108V57.9718H107.923L116.655 61.8163C117.205 62.0909 117.562 62.6951 117.534 63.2992V82.824Z" fill="black"/>
</g>
</svg>
