<svg width="132" height="132" viewBox="0 0 132 132" fill="none" xmlns="http://www.w3.org/2000/svg">
<path d="M55.6875 32H59.8125V36.125H55.6875V32Z" fill="black"/>
<path d="M72.1875 32H76.3125V36.125H72.1875V32Z" fill="black"/>
<path d="M66 50.5625C69.4696 50.5625 72.1875 48.2976 72.1875 45.4062H68.0625C68.0625 45.7698 67.2795 46.4375 66 46.4375C64.7205 46.4375 63.9375 45.7698 63.9375 45.4062H59.8125C59.8125 48.2976 62.5304 50.5625 66 50.5625Z" fill="black"/>
<path d="M118.615 92.011L110.771 84.1665L107.854 87.0835L115.699 94.9277C116.947 96.1697 117.937 97.6471 118.611 99.2743C119.285 100.901 119.63 102.646 119.625 104.407V117.078C119.623 118.582 119.025 120.024 117.962 121.087C116.899 122.15 115.457 122.748 113.953 122.75H109.313V112.438H113.438V108.312H105.188V71.1875C105.188 70.6405 104.97 70.1159 104.583 69.7291C104.197 69.3423 103.672 69.125 103.125 69.125H91.9401L80.1764 61.6389L78.4692 54.8102L79.191 54.4444C80.8101 53.6306 82.1704 52.3818 83.1193 50.8379C84.0681 49.2941 84.5679 47.5164 84.5626 45.7043V44.375H85.5938C87.5077 44.3728 89.3425 43.6116 90.6958 42.2583C92.0491 40.905 92.8104 39.0701 92.8126 37.1562V35.0938C92.8104 33.2069 92.0704 31.3957 90.7506 30.0472C89.4309 28.6987 87.6361 27.9197 85.7498 27.8768C86.325 26.8184 86.6259 25.6327 86.6251 24.428V18.0781C86.6206 14.1137 85.0437 10.3129 82.2404 7.50964C79.4371 4.70636 75.6364 3.1295 71.6719 3.125H60.3282C56.3638 3.1295 52.563 4.70636 49.7597 7.50964C46.9564 10.3129 45.3796 14.1137 45.3751 18.0781V24.428C45.3746 25.6328 45.676 26.8185 46.2516 27.8768C44.365 27.9194 42.57 28.6982 41.25 30.0468C39.93 31.3953 39.1898 33.2067 39.1876 35.0938V37.1562C39.1897 39.0701 39.951 40.905 41.3043 42.2583C42.6576 43.6116 44.4925 44.3728 46.4063 44.375H47.4376V45.7824C47.4314 47.6031 47.9355 49.3891 48.8927 50.9379C49.8499 52.4867 51.2219 53.7362 52.8532 54.5449L53.5147 54.8757L51.8237 61.6389L40.06 69.125H28.8751C28.3281 69.125 27.8035 69.3423 27.4167 69.7291C27.0299 70.1159 26.8126 70.6405 26.8126 71.1875V78.5831L19.1666 86.229L22.0835 89.146L26.8126 84.4169V108.312H18.5626V112.438H22.6876V122.75H18.0469C16.5432 122.748 15.1015 122.15 14.0382 121.087C12.9749 120.024 12.3768 118.582 12.3751 117.078V104.407C12.3703 102.646 12.7148 100.902 13.3888 99.2743C14.0627 97.6471 15.0526 96.1697 16.3013 94.9277L17.9583 93.271L15.0419 90.354L13.3847 92.011C11.7517 93.6351 10.457 95.5671 9.57566 97.6949C8.6943 99.8227 8.24375 102.104 8.25007 104.407V117.078C8.253 119.676 9.28611 122.166 11.1227 124.002C12.9594 125.839 15.4495 126.872 18.0469 126.875H113.953C116.551 126.872 119.041 125.839 120.877 124.002C122.714 122.166 123.747 119.676 123.75 117.078V104.407C123.756 102.104 123.306 99.8227 122.424 97.6949C121.543 95.5671 120.248 93.6351 118.615 92.011ZM59.8126 73.25H72.1876V87.6875H59.8126V73.25ZM75.1045 69.125L78.6636 65.5672L84.2565 69.125H75.1045ZM51.1341 27.1557C50.6372 26.8954 50.2217 26.503 49.9334 26.0217C49.6451 25.5405 49.4952 24.989 49.5001 24.428V22.901L56.9851 18.7425C59.7395 17.2005 62.8434 16.3908 66.0001 16.3908C69.1567 16.3908 72.2606 17.2005 75.015 18.7425L82.5001 22.901V24.428C82.5 24.988 82.348 25.5374 82.0602 26.0178C81.7725 26.4981 81.3598 26.8913 80.8661 27.1555C80.3724 27.4197 79.8163 27.545 79.257 27.518C78.6977 27.4909 78.1562 27.3126 77.6903 27.002L72.8646 23.7851C70.8334 22.4256 68.4442 21.6999 66.0001 21.6999C63.5559 21.6999 61.1668 22.4256 59.1355 23.7851L54.3098 27.002C53.8458 27.3173 53.3039 27.4984 52.7436 27.5255C52.1833 27.5526 51.6263 27.4247 51.1341 27.1557ZM88.6876 35.0938V37.1562C88.6867 37.9765 88.3604 38.7629 87.7804 39.3429C87.2004 39.9229 86.4141 40.2491 85.5938 40.25H84.5626V32H85.5938C86.4141 32.0009 87.2004 32.3271 87.7804 32.9071C88.3604 33.4871 88.6867 34.2735 88.6876 35.0938ZM60.3282 7.25H71.6719C74.5428 7.25321 77.2951 8.39505 79.325 10.425C81.355 12.455 82.4969 15.2073 82.5001 18.0781V18.1813L77.0179 15.1367C73.6516 13.252 69.8581 12.2624 66.0001 12.2624C62.142 12.2624 58.3485 13.252 54.9822 15.1367L49.5001 18.1813V18.0781C49.5033 15.2073 50.6451 12.455 52.6751 10.425C54.7051 8.39505 57.4574 7.25321 60.3282 7.25ZM46.4063 40.25C45.5861 40.2491 44.7997 39.9229 44.2197 39.3429C43.6397 38.7629 43.3135 37.9765 43.3126 37.1562V35.0938C43.3135 34.2735 43.6397 33.4871 44.2197 32.9071C44.7997 32.3271 45.5861 32.0009 46.4063 32H47.4376V40.25H46.4063ZM51.5626 45.7824V31.5741C53.3242 31.8295 55.118 31.4234 56.5979 30.4343L61.4236 27.2171C62.7778 26.311 64.3705 25.8273 65.9998 25.8273C67.6292 25.8273 69.2218 26.311 70.576 27.2171L75.4017 30.4343C76.882 31.4231 78.6758 31.829 80.4376 31.5738V45.7043C80.4407 46.7534 80.1513 47.7826 79.602 48.6764C79.0527 49.5702 78.2652 50.2932 77.3278 50.7644L67.3832 55.8002C66.9521 56.0174 66.4762 56.1312 65.9934 56.1324C65.5107 56.1337 65.0342 56.0224 64.6019 55.8074L54.6981 50.8556C53.7536 50.3874 52.9593 49.6639 52.4051 48.7673C51.8509 47.8706 51.559 46.8365 51.5626 45.7824ZM62.757 59.498C63.7657 59.9997 64.8773 60.2593 66.0038 60.2565C67.1303 60.2536 68.2406 59.9883 69.2467 59.4815L74.6951 56.7229L76.0911 62.3064L69.2707 69.125H62.7295L55.909 62.3048L57.294 56.7655L62.757 59.498ZM53.3366 65.5669L56.8957 69.125H47.7433L53.3366 65.5669ZM30.9376 73.25H55.6876V89.75C55.6876 90.297 55.9049 90.8216 56.2917 91.2084C56.6785 91.5952 57.2031 91.8125 57.7501 91.8125H74.2501C74.7971 91.8125 75.3217 91.5952 75.7085 91.2084C76.0953 90.8216 76.3126 90.297 76.3126 89.75V73.25H101.063V108.312H99.0001C94.9827 108.318 91.1048 109.787 88.0917 112.444C85.0786 115.101 83.1366 118.765 82.629 122.75H76.3126V112.438C76.3126 111.89 76.0953 111.366 75.7085 110.979C75.3217 110.592 74.7971 110.375 74.2501 110.375H57.7501C57.2031 110.375 56.6785 110.592 56.2917 110.979C55.9049 111.366 55.6876 111.89 55.6876 112.438V122.75H49.3712C48.8635 118.765 46.9215 115.101 43.9084 112.444C40.8953 109.787 37.0175 108.318 33.0001 108.312H30.9376V73.25ZM26.8126 122.75V112.438H33.0001C35.9236 112.441 38.7518 113.478 40.9848 115.365C43.2178 117.252 44.7119 119.868 45.2031 122.75H26.8126ZM59.8126 122.75V114.5H72.1876V122.75H59.8126ZM105.188 122.75H86.797C87.2882 119.868 88.7823 117.252 91.0153 115.365C93.2483 113.478 96.0765 112.441 99.0001 112.438H105.188V122.75Z" fill="black"/>
<path d="M35.0625 77.375H39.1875V81.5H35.0625V77.375Z" fill="black"/>
<path d="M43.3125 77.375H51.5625V81.5H43.3125V77.375Z" fill="black"/>
<path d="M35.0625 85.625H51.5625V89.75H35.0625V85.625Z" fill="black"/>
<path d="M82.5 91.8125H89.7188C91.6326 91.8103 93.4675 91.0491 94.8208 89.6958C96.1741 88.3425 96.9353 86.5076 96.9375 84.5938V79.4375C96.9375 78.8905 96.7202 78.3659 96.3334 77.9791C95.9466 77.5923 95.422 77.375 94.875 77.375H87.6562C85.7424 77.3772 83.9075 78.1384 82.5542 79.4917C81.2009 80.845 80.4397 82.6799 80.4375 84.5938V89.75C80.4375 90.297 80.6548 90.8216 81.0416 91.2084C81.4284 91.5952 81.953 91.8125 82.5 91.8125ZM84.5625 84.5938C84.5634 83.7735 84.8896 82.9871 85.4696 82.4071C86.0496 81.8271 86.836 81.5009 87.6562 81.5H92.8125V84.5938C92.8116 85.414 92.4854 86.2004 91.9054 86.7804C91.3254 87.3604 90.539 87.6866 89.7188 87.6875H84.5625V84.5938Z" fill="black"/>
</svg>
