<svg width="123" height="123" viewBox="0 0 123 123" fill="none" xmlns="http://www.w3.org/2000/svg">
<g clip-path="url(#clip0)">
<path d="M99.3119 37.1166L64.342 17.7412C62.5626 16.7555 60.4377 16.7555 58.6583 17.7412C58.6583 17.7415 58.6583 17.7415 58.6583 17.7415L23.6882 37.1163C21.8239 38.1493 20.666 40.1147 20.666 42.2458V80.7531C20.666 82.8842 21.8239 84.8498 23.6882 85.8826L58.6583 105.258C59.5479 105.751 60.5239 105.997 61.5 105.997C62.4758 105.997 63.4522 105.751 64.342 105.258L99.3119 85.8828C101.176 84.8498 102.334 82.8845 102.334 80.7534V42.246C102.334 40.1152 101.176 38.1496 99.3119 37.1166ZM60.9864 21.9434C61.3081 21.7647 61.6924 21.7651 62.0136 21.9434L75.9775 29.6801L42.2991 48.3398L28.008 40.2151L60.9864 21.9434ZM59.0984 100.009L26.0167 81.6804C25.6795 81.494 25.47 81.1387 25.47 80.7534V44.2979L41.0772 53.1709C41.0811 53.1731 41.0849 53.1752 41.0888 53.1774L59.0984 63.4162V100.009ZM47.1917 51.1212L80.934 32.4262L95.4448 40.4657L61.5156 59.2644L47.1917 51.1212ZM97.5298 80.7531C97.5301 81.1387 97.3206 81.494 96.9833 81.6809L63.9016 100.01V63.4342L97.5298 44.8024V80.7531Z" fill="black"/>
<path d="M44.6423 61.1336L31.9143 54.1238C31.1705 53.7147 30.2653 53.7279 29.5335 54.1599C28.802 54.592 28.3535 55.3783 28.3535 56.2278V66.3822C28.3535 67.2576 28.8299 68.0639 29.5967 68.4864L42.3248 75.4962C42.6859 75.6949 43.0849 75.7941 43.4834 75.7941C43.9065 75.7941 44.3291 75.6824 44.7053 75.46C45.4368 75.028 45.8853 74.2417 45.8853 73.3923V63.2378C45.8855 62.3622 45.4094 61.5559 44.6423 61.1336ZM41.0816 69.327L33.1577 64.9632V60.2933L41.0816 64.6574V69.327Z" fill="black"/>
<path d="M54.6614 86.53L48.2976 83.025C47.1358 82.385 45.6747 82.8083 45.0348 83.9703C44.3948 85.1323 44.8181 86.5929 45.9801 87.2332L52.3439 90.7382C52.7114 90.9407 53.1088 91.0365 53.5004 91.0365C54.3474 91.0365 55.1688 90.5873 55.6067 89.7928C56.2467 88.6308 55.8237 87.17 54.6614 86.53Z" fill="black"/>
<path d="M111.77 26.0751L116.202 21.6433C116.889 20.9562 117.094 19.9232 116.723 19.0257C116.351 18.1284 115.475 17.543 114.504 17.543H102.574C101.247 17.543 100.171 18.6185 100.171 19.9451V31.8751C100.171 32.8466 100.757 33.7225 101.654 34.0944C101.951 34.2174 102.264 34.2772 102.573 34.2772C103.198 34.2772 103.812 34.0331 104.272 33.5735L108.319 29.5268C123.535 51.7739 120.814 82.3533 101.583 101.584C85.0427 118.123 60.481 122.822 39.0091 113.552C37.7911 113.026 36.3773 113.587 35.8517 114.805C35.3258 116.023 35.8868 117.437 37.1048 117.962C44.8458 121.304 53.1051 123 61.4462 123C65.1542 123 68.8798 122.664 72.5806 121.99C84.894 119.745 96.0971 113.863 104.98 104.981C115.494 94.4661 121.84 80.5145 122.848 65.6962C123.809 51.5651 119.881 37.5619 111.77 26.0751ZM104.976 26.0756V22.3467H108.705L104.976 26.0756Z" fill="black"/>
<path d="M32.0969 109.982L32.0032 109.925C30.8702 109.235 29.3925 109.594 28.7024 110.728C28.0124 111.86 28.3715 113.338 29.5047 114.028L29.5984 114.086C29.9886 114.323 30.4198 114.436 30.8452 114.436C31.6558 114.436 32.4466 114.026 32.8992 113.283C33.5887 112.15 33.2298 110.673 32.0969 109.982Z" fill="black"/>
<path d="M93.8232 9.17447L93.7043 9.10096C92.5745 8.40548 91.0951 8.75767 90.3997 9.88773C89.7042 11.0178 90.0569 12.4972 91.1867 13.1926L91.3056 13.2661C91.6984 13.5078 92.1327 13.6226 92.562 13.6226C93.3685 13.6226 94.1564 13.2167 94.61 12.4794C95.3052 11.3491 94.9528 9.86971 93.8232 9.17447Z" fill="black"/>
<path d="M85.7608 4.97914C74.5914 0.189119 62.3457 -1.17877 50.3484 1.02273C38.0631 3.27757 26.8845 9.15441 18.0202 18.0188C7.50559 28.5334 1.16005 42.4849 0.152033 57.3033C-0.808662 71.4339 3.1194 85.4373 11.2302 96.9241L6.79835 101.356C6.11152 102.043 5.90612 103.076 6.27752 103.974C6.6494 104.871 7.52505 105.456 8.4968 105.456H20.4268C21.7531 105.456 22.8289 104.381 22.8289 103.054V91.1241C22.8292 90.1526 22.2437 89.2767 21.3464 88.9049C20.4487 88.5335 19.4154 88.7389 18.7286 89.4257L14.6816 93.4727C-0.534796 71.2256 2.18657 40.6462 21.4171 21.4157C37.9144 4.91812 62.4274 0.198968 83.8673 9.39416C85.0863 9.91715 86.4986 9.35236 87.0216 8.13341C87.5446 6.91447 86.9803 5.50213 85.7608 4.97914ZM18.0245 96.9236V100.653H14.2958L18.0245 96.9236Z" fill="black"/>
</g>
<defs>
<clipPath id="clip0">
<rect width="123" height="123" fill="white"/>
</clipPath>
</defs>
</svg>
