<svg width="19" height="18" viewBox="0 0 19 18" fill="none" xmlns="http://www.w3.org/2000/svg">
<g clip-path="url(#clip0)">
<path d="M9.9799 0.466797C6.49089 0.466797 3.65234 3.16807 3.65234 6.48836C3.65234 7.61018 3.97888 8.70496 4.59687 9.65477L9.61973 17.3576C9.71594 17.5051 9.88545 17.5948 10.0678 17.5948C10.0692 17.5948 10.0705 17.5948 10.0719 17.5948C10.2558 17.5934 10.4257 17.501 10.5201 17.3509L15.415 9.57341C15.9989 8.64368 16.3075 7.57689 16.3075 6.48836C16.3075 3.16807 13.4689 0.466797 9.9799 0.466797ZM14.5099 9.05816L10.0598 16.1291L5.49321 9.12601C4.97881 8.33544 4.69991 7.42337 4.69991 6.48836C4.69991 3.72145 7.07239 1.4637 9.9799 1.4637C12.8874 1.4637 15.2564 3.72145 15.2564 6.48836C15.2564 7.39564 14.9959 8.28439 14.5099 9.05816Z" fill="white"/>
<path d="M9.98019 3.47656C8.23568 3.47656 6.81641 4.8272 6.81641 6.48734C6.81641 8.13688 8.21258 9.49812 9.98019 9.49812C11.7696 9.49812 13.144 8.11875 13.144 6.48734C13.144 4.8272 11.7247 3.47656 9.98019 3.47656ZM9.98019 8.50122C8.8111 8.50122 7.86397 7.59688 7.86397 6.48734C7.86397 5.38058 8.81718 4.47347 9.98019 4.47347C11.1432 4.47347 12.0929 5.38058 12.0929 6.48734C12.0929 7.58069 11.1678 8.50122 9.98019 8.50122Z" fill="white"/>
</g>
<defs>
<clipPath id="clip0">
<rect width="17.9984" height="17.128" fill="white" transform="translate(0.980469 0.466797)"/>
</clipPath>
</defs>
</svg>
