<svg width="23" height="18" viewBox="0 0 23 18" fill="none" xmlns="http://www.w3.org/2000/svg">
<path d="M1.43538 16.8421C1.44947 16.8553 1.46483 16.8672 1.48131 16.8775C1.87884 17.2748 2.42865 17.4992 3.00311 17.4991H15.601C16.1749 17.4992 16.724 17.2754 17.1215 16.8792C17.1662 16.8511 17.2024 16.8126 17.2269 16.7671C17.5433 16.4041 17.7163 15.9463 17.7157 15.4735V10.8776C18.2582 10.8475 18.7929 10.7399 19.3022 10.5588L22.2313 11.0064C22.3452 11.0238 22.46 10.9802 22.5303 10.8925C22.6008 10.8049 22.6156 10.6874 22.5688 10.5863L21.7543 8.82556C23.1911 7.0304 23.2675 4.55585 21.9442 2.6823C20.6207 0.808743 18.1943 -0.0437679 15.9201 0.565997C13.6459 1.17576 12.0341 3.11085 11.9184 5.37031H3.00311C1.94054 5.3718 1.04363 6.12756 0.906564 7.13686C0.889941 7.18288 0.885011 7.23199 0.892336 7.28016C0.890082 7.31862 0.888673 7.35707 0.888673 7.3958V15.4735C0.88811 15.9459 1.06096 16.4034 1.37678 16.7664C1.392 16.7945 1.41186 16.8201 1.43538 16.8421ZM3.00311 16.8957C2.68193 16.8961 2.36906 16.7958 2.1124 16.6106L5.91205 12.888C5.99178 12.8112 6.02235 12.6992 5.99221 12.5948C5.96192 12.4902 5.87571 12.4094 5.76583 12.3828C5.65609 12.3562 5.54002 12.3881 5.46155 12.4663L1.69895 16.1526C1.5802 15.9444 1.51822 15.7107 1.51836 15.4735V7.88709L8.0541 13.188C8.77521 13.776 9.8351 13.7757 10.5558 13.1872L14.3873 10.0742C14.3962 10.0672 14.4046 10.0597 14.4125 10.0516L14.419 10.045C15.2166 10.5414 16.136 10.8286 17.0858 10.8779V15.4735C17.0862 15.7118 17.0236 15.9459 16.904 16.1547L13.1188 12.4657C13.0403 12.3874 12.9238 12.3556 12.8141 12.3823C12.7042 12.4091 12.6178 12.4904 12.588 12.5951C12.5581 12.6999 12.5892 12.8119 12.6697 12.8885L16.49 16.6122C16.2338 16.7965 15.9218 16.8962 15.601 16.8958L3.00311 16.8957ZM13.9138 2.38706C15.7275 0.586372 18.7029 0.481799 20.649 2.15066C22.5951 3.81925 22.815 6.66352 21.1466 8.58861C21.0707 8.67686 21.053 8.79857 21.1016 8.90301L21.7584 10.3232L19.3188 9.95037C19.2637 9.942 19.2074 9.94767 19.1553 9.96696C17.6287 10.5358 15.9054 10.3283 14.5735 9.41522C14.566 9.40942 14.5586 9.40402 14.5508 9.39916C14.3623 9.26801 14.184 9.12417 14.0168 8.96872C12.091 7.17856 12.0449 4.23174 13.9138 2.38706ZM3.00311 5.9736H11.9235C12.009 7.27409 12.5992 8.49686 13.578 9.40172C13.6822 9.49847 13.7897 9.5909 13.9003 9.67874L10.1484 12.7269C9.6624 13.1239 8.94749 13.1241 8.46107 12.7276L1.54681 7.11959C1.68543 6.4541 2.29482 5.97468 3.00311 5.9736Z" fill="white"/>
<path d="M15.4599 4.95154H15.467L20.5498 4.87828C20.802 4.87474 21.0031 4.67517 20.9994 4.43258C20.9957 4.19019 20.7881 3.99632 20.5363 4.00005L15.4535 4.07332C15.2013 4.07509 14.9984 4.27309 15 4.51567C15.0021 4.75806 15.2079 4.95331 15.4599 4.95154Z" fill="white"/>
<path d="M18.4484 6.00001H18.4401L15.5436 6.03625C15.2413 6.03809 14.9981 6.24445 15 6.49707C15.0022 6.7499 15.2492 6.95339 15.5512 6.95154H15.5598L18.4563 6.91531C18.7583 6.91367 19.0016 6.70711 18.9996 6.45428C18.9974 6.20146 18.7507 5.99817 18.4484 6.00001Z" fill="white"/>
</svg>
