<svg width="164" height="164" viewBox="0 0 164 164" fill="none" xmlns="http://www.w3.org/2000/svg">
<path d="M158.587 82.6227L164 71.7968L158.587 44.7339V10.6351H148.014V0.0625H126.869C123.698 0.0625 120.88 1.49494 118.94 3.71534C117 1.49494 114.182 0.0625 111.011 0.0625H89.8659V10.6351H79.2934V15.9212H10.5726V122.111C4.04395 124.363 0 134.52 0 140.148C0 143.708 1.42988 146.93 3.72684 149.309C1.49586 150.712 0 153.181 0 156.006V163.936H163.873V148.077H158.587V82.6227ZM148.014 148.077V89.9284H89.8659V148.077H84.5798V84.6423H94.1427L97.7956 77.3366L101.448 84.6423H115.288L118.941 77.3366L122.594 84.6423H136.433L140.115 77.2761L143.739 84.6423H153.302V148.077H148.014ZM116.297 126.932H111.011V116.359H116.297V126.932H116.297ZM121.583 116.36H126.869V126.932H121.583V116.36ZM105.725 111.073V132.218H116.297V148.077H95.152V95.2145H116.297V111.073H105.725ZM121.583 132.218H132.156V111.074H121.583V95.2149H142.728V148.077H121.583V132.218ZM147.005 79.3559L144.362 74.0697H156.953L154.31 79.3559H147.005ZM26.4312 105.787V68.7836H42.2899V75.9122L32.1616 91.1049C31.6196 91.9163 31.5697 92.9576 32.0293 93.8167C32.4893 94.6783 33.3852 95.2149 34.3606 95.2149H55.5054C56.4807 95.2149 57.3766 94.6783 57.8366 93.8193C58.2966 92.9602 58.2463 91.9163 57.7043 91.1075L47.576 75.9122V68.7836H74.4829L73.8804 71.7968L79.2934 82.6231V105.787H26.4312V105.787ZM44.9328 81.4783L50.5652 89.9284H39.2975L44.9328 81.4783ZM83.5699 79.3559L80.9266 74.0697H93.5184L90.8752 79.3559H83.5699ZM142.252 68.7836L138.023 47.6388H153.776L158.005 68.7836H142.252ZM136.861 68.7836H121.583V57.836C126.129 56.6544 129.513 52.5499 129.513 47.6388H132.631L136.861 68.7836ZM135.809 74.0697L133.165 79.3559H125.86L123.217 74.0697H135.809ZM118.94 52.925C116.025 52.925 113.654 50.554 113.654 47.6388H124.226C124.226 50.554 121.856 52.925 118.94 52.925ZM116.297 57.8357V68.7833H100.938L105.246 47.6385H108.367C108.368 52.5496 111.751 56.6544 116.297 57.8357ZM114.664 74.0697L112.02 79.3559H104.715L102.071 74.0697H114.664ZM95.628 68.7836H79.875L84.1041 47.6388H99.8571L95.628 68.7836ZM79.2934 42.3524H21.1448V47.6385H78.7117L77.6543 52.9246H15.8587V37.066H79.2934V42.3524ZM76.5976 58.2111L75.5403 63.4972H21.1448V126.086C19.6489 124.249 17.8725 122.806 15.8587 122.111V58.2111H76.5976ZM26.4312 111.073H37.0038V137.504H26.4312V111.073ZM42.2899 111.073H52.8625V137.502H42.2899V111.073ZM58.1486 111.073H68.7211V137.502H58.1486V111.073ZM74.0072 111.073H79.2934V137.502H74.0072V111.073ZM126.869 5.34862H142.728V31.7798H121.583V10.6351C121.583 7.71957 123.954 5.34862 126.869 5.34862ZM95.152 5.34862H111.011C113.926 5.34862 116.297 7.71957 116.297 10.6347V31.7795H95.152V5.34862ZM84.5798 15.9212H89.8659V37.066H116.297H121.583H148.014V15.9212H153.301V42.3524H124.226H113.654H84.5798V15.9212ZM79.2934 21.2073V31.7798H15.8587V21.2073H79.2934ZM13.2155 126.932C16.892 126.932 21.1448 134.93 21.1448 140.147C21.1448 144.519 17.5871 148.077 13.2155 148.077C8.84383 148.077 5.28612 144.519 5.28612 140.147C5.28612 134.93 9.53891 126.932 13.2155 126.932ZM21.1448 158.65H5.28612V156.006C5.28612 154.55 6.47287 153.363 7.92934 153.363H18.5019C19.9584 153.363 21.1451 154.55 21.1451 156.006V158.65H21.1448ZM74.0072 158.65H26.4312V156.006C26.4312 153.181 24.9354 150.712 22.7044 149.309C24.4171 147.535 25.6541 145.296 26.1641 142.791L79.2934 142.788V148.077H74.0072V158.65ZM158.587 158.65H79.2934V153.363H158.587V158.65H158.587Z" fill="black"/>
<path d="M126.869 10.6348H137.442V15.9209H126.869V10.6348Z" fill="black"/>
<path d="M126.869 21.207H137.442V26.4931H126.869V21.207Z" fill="black"/>
<path d="M100.438 10.6348H111.01V15.9209H100.438V10.6348Z" fill="black"/>
<path d="M100.438 21.207H111.01V26.4931H100.438V21.207Z" fill="black"/>
<path d="M31.7174 121.646C33.1772 121.646 34.3607 120.462 34.3607 119.003C34.3607 117.543 33.1772 116.359 31.7174 116.359C30.2576 116.359 29.0742 117.543 29.0742 119.003C29.0742 120.462 30.2576 121.646 31.7174 121.646Z" fill="black"/>
<path d="M31.7174 132.218C33.1772 132.218 34.3607 131.035 34.3607 129.575C34.3607 128.115 33.1772 126.932 31.7174 126.932C30.2576 126.932 29.0742 128.115 29.0742 129.575C29.0742 131.035 30.2576 132.218 31.7174 132.218Z" fill="black"/>
<path d="M47.5749 121.646C49.0347 121.646 50.2181 120.462 50.2181 119.003C50.2181 117.543 49.0347 116.359 47.5749 116.359C46.115 116.359 44.9316 117.543 44.9316 119.003C44.9316 120.462 46.115 121.646 47.5749 121.646Z" fill="black"/>
<path d="M47.5749 132.218C49.0347 132.218 50.2181 131.035 50.2181 129.575C50.2181 128.115 49.0347 126.932 47.5749 126.932C46.115 126.932 44.9316 128.115 44.9316 129.575C44.9316 131.035 46.115 132.218 47.5749 132.218Z" fill="black"/>
<path d="M63.4342 121.646C64.894 121.646 66.0775 120.462 66.0775 119.003C66.0775 117.543 64.894 116.359 63.4342 116.359C61.9744 116.359 60.791 117.543 60.791 119.003C60.791 120.462 61.9744 121.646 63.4342 121.646Z" fill="black"/>
<path d="M63.4342 132.218C64.894 132.218 66.0775 131.035 66.0775 129.575C66.0775 128.115 64.894 126.932 63.4342 126.932C61.9744 126.932 60.791 128.115 60.791 129.575C60.791 131.035 61.9744 132.218 63.4342 132.218Z" fill="black"/>
</svg>
