<svg width="19" height="18" viewBox="0 0 19 18" fill="none" xmlns="http://www.w3.org/2000/svg">
<path d="M15.1968 11.0277C14.8278 10.6626 14.3827 10.4674 13.911 10.4674C13.4431 10.4674 12.9942 10.6589 12.61 11.0241L11.4078 12.1628C11.3089 12.1122 11.21 12.0652 11.1149 12.0182C10.978 11.9531 10.8486 11.8917 10.7383 11.8266C9.61226 11.147 8.58893 10.2613 7.60744 9.11535C7.13191 8.54418 6.81236 8.06339 6.5803 7.57536C6.89225 7.30424 7.18137 7.02227 7.46288 6.75115C7.5694 6.64993 7.67591 6.54509 7.78243 6.44387C8.58132 5.68473 8.58132 4.70145 7.78243 3.94231L6.74388 2.95542C6.62595 2.84335 6.50422 2.72767 6.39009 2.61199C6.16184 2.38786 5.92217 2.1565 5.6749 1.93961C5.30589 1.59257 4.8646 1.4082 4.40049 1.4082C3.93637 1.4082 3.48747 1.59257 3.10705 1.93961C3.10325 1.94322 3.10325 1.94322 3.09944 1.94684L1.80601 3.18678C1.31907 3.64949 1.04136 4.21343 0.980498 4.86774C0.889196 5.92332 1.21636 6.90659 1.46744 7.55006C2.08372 9.12981 3.00434 10.5939 4.37766 12.1628C6.04391 14.0534 8.04873 15.5464 10.3389 16.5984C11.2138 16.9924 12.3817 17.4587 13.6866 17.5383C13.7665 17.5419 13.8502 17.5455 13.9262 17.5455C14.805 17.5455 15.543 17.2454 16.1213 16.649C16.1251 16.6417 16.1327 16.6381 16.1365 16.6309C16.3343 16.4032 16.5626 16.1971 16.8022 15.9766C16.9658 15.8284 17.1332 15.6729 17.2968 15.5103C17.6734 15.1379 17.8712 14.7041 17.8712 14.2595C17.8712 13.8112 17.6696 13.381 17.2854 13.0195L15.1968 11.0277ZM16.5588 14.8343C16.5549 14.8343 16.5549 14.8379 16.5588 14.8343C16.4104 14.9861 16.2582 15.1235 16.0946 15.2753C15.8474 15.4994 15.5963 15.7344 15.3604 15.9983C14.9762 16.3887 14.5235 16.5731 13.93 16.5731C13.873 16.5731 13.8121 16.5731 13.755 16.5694C12.6252 16.5008 11.5752 16.0814 10.7878 15.7235C8.63458 14.733 6.74388 13.3268 5.17274 11.5446C3.8755 10.0589 3.00814 8.68516 2.43371 7.21025C2.07992 6.31012 1.95057 5.60881 2.00764 4.94727C2.04568 4.52432 2.21687 4.17367 2.53262 3.87362L3.82985 2.64091C4.01626 2.47462 4.21408 2.38425 4.40809 2.38425C4.64776 2.38425 4.84177 2.52162 4.96351 2.6373C4.96731 2.64091 4.97112 2.64453 4.97492 2.64814C5.20698 2.8542 5.42762 3.06748 5.65968 3.29522C5.77761 3.4109 5.89935 3.52658 6.02108 3.64588L7.05963 4.63277C7.46288 5.01596 7.46288 5.37022 7.05963 5.75341C6.94931 5.85825 6.84279 5.96308 6.73247 6.0643C6.41291 6.37519 6.10858 6.66439 5.77761 6.94636C5.77 6.95359 5.76239 6.9572 5.75859 6.96443C5.43143 7.27532 5.4923 7.57898 5.56077 7.78503C5.56458 7.79588 5.56838 7.80672 5.57218 7.81757C5.84228 8.43935 6.2227 9.02497 6.80094 9.72266L6.80475 9.72628C7.85471 10.9554 8.96174 11.9133 10.1829 12.6472C10.3389 12.7412 10.4986 12.8171 10.6508 12.8894C10.7878 12.9545 10.9171 13.0159 11.0274 13.081C11.0426 13.0882 11.0579 13.0991 11.0731 13.1063C11.2024 13.1677 11.3242 13.1967 11.4497 13.1967C11.7654 13.1967 11.9633 13.0087 12.0279 12.9472L13.329 11.7109C13.4583 11.588 13.6637 11.4398 13.9034 11.4398C14.1393 11.4398 14.3333 11.5808 14.4512 11.7037C14.455 11.7073 14.455 11.7073 14.4588 11.7109L16.5549 13.7028C16.9468 14.0715 16.9468 14.4511 16.5588 14.8343Z" fill="white"/>
<path d="M10.6923 4.49156C11.689 4.65062 12.5944 5.09887 13.3172 5.78572C14.04 6.47257 14.5079 7.33293 14.6791 8.28006C14.7209 8.51865 14.9378 8.68494 15.185 8.68494C15.2155 8.68494 15.2421 8.68132 15.2725 8.67771C15.554 8.63433 15.7405 8.38128 15.6948 8.11377C15.4894 6.96782 14.9187 5.92309 14.0476 5.09526C13.1764 4.26743 12.077 3.72518 10.8711 3.52997C10.5896 3.48659 10.3271 3.66373 10.2776 3.92762C10.2282 4.19151 10.4108 4.44818 10.6923 4.49156Z" fill="white"/>
<path d="M18.9557 7.97349C18.6172 6.08647 17.6813 4.36936 16.2433 3.00289C14.8053 1.63643 12.9983 0.747142 11.0125 0.425409C10.7348 0.378414 10.4723 0.559163 10.4229 0.823057C10.3772 1.09057 10.5636 1.34 10.8452 1.38699C12.6179 1.67258 14.2347 2.47149 15.5205 3.68974C16.8064 4.9116 17.6433 6.44797 17.9438 8.13255C17.9857 8.37114 18.2025 8.53743 18.4498 8.53743C18.4802 8.53743 18.5068 8.53382 18.5373 8.5302C18.815 8.49044 19.0052 8.23739 18.9557 7.97349Z" fill="white"/>
</svg>
